<?xml version="1.0" encoding="UTF-8"?>
<svg id="Layer_2" data-name="Layer 2" xmlns="http://www.w3.org/2000/svg" viewBox="0 0 440 215.57">
  <defs>
    <style>
      .cls-1 {
        fill: #fff;
      }
    </style>
  </defs>
  <g id="Layer_3" data-name="Layer 3">
    <g>
      <path class="cls-1" d="m359.07,26.85h-67.96C272.12,10.15,247.22,0,220,0s-52.12,10.15-71.11,26.85h-67.95c-22.35,0-42.59,9.06-57.23,23.7S0,85.43,0,107.78c0,44.7,36.24,80.94,80.94,80.94h67.95c18.99,16.7,43.89,26.85,71.11,26.85s52.12-10.15,71.11-26.85h67.96c22.35,0,42.58-9.06,57.23-23.71,14.64-14.64,23.7-34.88,23.7-57.23,0-44.7-36.23-80.93-80.93-80.93Zm7.6,61.89c0-2.76,2.24-5,5-5,1.38,0,2.63.56,3.53,1.47.91.9,1.47,2.15,1.47,3.53v10c0,2.77-2.24,5-5,5s-5-2.23-5-5v-10Zm-271.31,22.57c-.9.91-2.16,1.47-3.54,1.47h-13.23v13.24c0,2.76-2.24,5-5,5s-5-2.24-5-5v-13.24h-13.23c-2.77,0-5-2.24-5-5s2.23-5,5-5h13.23v-13.23c0-2.76,2.24-5,5-5,1.38,0,2.63.56,3.53,1.46.91.91,1.47,2.16,1.47,3.54v13.23h13.23c2.77,0,5,2.24,5,5,0,1.38-.56,2.63-1.46,3.53Zm171.97,77.41c-13.9,8.17-30.08,12.85-47.33,12.85s-33.43-4.68-47.33-12.85c-27.77-16.3-46.45-46.48-46.45-80.94s18.68-64.63,46.45-80.93c13.9-8.17,30.08-12.85,47.33-12.85s33.43,4.68,47.33,12.85c27.77,16.29,46.46,46.47,46.46,80.93s-18.69,64.65-46.46,80.94Zm94.34-76.9h-10c-2.76,0-5-2.24-5-5,0-1.38.56-2.63,1.47-3.53.9-.91,2.15-1.47,3.53-1.47h10c2.76,0,5,2.24,5,5s-2.24,5-5,5Zm15,15c0,2.76-2.24,5-5,5s-5-2.24-5-5v-10c0-2.76,2.24-5,5-5,1.38,0,2.63.56,3.53,1.47.91.9,1.47,2.15,1.47,3.53v10Zm15-15h-10c-2.76,0-5-2.24-5-5,0-1.38.56-2.63,1.47-3.53.9-.91,2.15-1.47,3.53-1.47h10c2.76,0,5,2.24,5,5s-2.24,5-5,5Z"/>
      <path class="cls-1" d="m267.73,147.4c-1.12,1.56-2.88,2.39-4.66,2.39-1.17,0-2.35-.35-3.37-1.09l-46.86-33.79c-1.43-1.03-2.25-2.59-2.36-4.22-.02-.17-.03-.34-.03-.52v-42.26c0-3.18,2.58-5.76,5.76-5.76,1.59,0,3.03.64,4.07,1.69,1.04,1.04,1.68,2.48,1.68,4.07v39.39l44.47,32.06c2.58,1.86,3.16,5.46,1.3,8.04Z"/>
    </g>
  </g>
</svg>