<svg width="2557" height="1342" viewBox="0 0 2557 1342" fill="none" xmlns="http://www.w3.org/2000/svg">
<rect width="2557" height="1342" fill="#0D1117"/>
<rect width="2557" height="1342" fill="url(#paint0_linear_13_4)" fill-opacity="0.5"/>
<path d="M143.562 416.182H177.966L201.631 473.852H202.824L226.489 416.182H260.892V518H233.847V459.136H233.051L210.381 517.205H194.074L171.403 458.739H170.608V518H143.562V416.182ZM295.668 519.193C290.796 519.193 286.487 518.398 282.742 516.807C279.03 515.183 276.113 512.73 273.992 509.449C271.871 506.168 270.81 501.991 270.81 496.92C270.81 492.744 271.523 489.181 272.948 486.232C274.373 483.249 276.362 480.812 278.914 478.923C281.466 477.034 284.433 475.592 287.813 474.598C291.227 473.604 294.906 472.957 298.85 472.659C303.126 472.328 306.556 471.93 309.141 471.466C311.76 470.969 313.649 470.289 314.809 469.428C315.969 468.533 316.549 467.356 316.549 465.898V465.699C316.549 463.71 315.787 462.186 314.262 461.125C312.737 460.064 310.782 459.534 308.396 459.534C305.777 459.534 303.639 460.114 301.982 461.274C300.358 462.401 299.38 464.141 299.049 466.494H273.793C274.125 461.854 275.6 457.579 278.218 453.668C280.87 449.723 284.731 446.575 289.802 444.222C294.873 441.835 301.203 440.642 308.793 440.642C314.262 440.642 319.167 441.288 323.509 442.581C327.851 443.84 331.547 445.614 334.596 447.901C337.645 450.154 339.965 452.806 341.556 455.855C343.18 458.871 343.992 462.152 343.992 465.699V518H318.339V507.261H317.742C316.218 510.112 314.362 512.415 312.174 514.172C310.02 515.929 307.55 517.205 304.766 518C302.015 518.795 298.983 519.193 295.668 519.193ZM304.617 501.892C306.705 501.892 308.661 501.461 310.484 500.599C312.34 499.738 313.848 498.495 315.008 496.871C316.168 495.247 316.748 493.275 316.748 490.955V484.591C316.019 484.889 315.24 485.171 314.411 485.436C313.616 485.701 312.754 485.95 311.826 486.182C310.931 486.414 309.97 486.629 308.942 486.828C307.948 487.027 306.904 487.209 305.81 487.375C303.689 487.706 301.949 488.253 300.59 489.016C299.264 489.745 298.27 490.656 297.607 491.75C296.978 492.811 296.663 494.004 296.663 495.33C296.663 497.451 297.408 499.075 298.9 500.202C300.391 501.329 302.297 501.892 304.617 501.892ZM426.906 466.494H401.65C401.518 464.937 400.971 463.594 400.01 462.467C399.048 461.34 397.806 460.479 396.281 459.882C394.789 459.252 393.132 458.938 391.309 458.938C388.956 458.938 386.934 459.368 385.244 460.23C383.554 461.092 382.725 462.318 382.758 463.909C382.725 465.036 383.206 466.08 384.2 467.041C385.227 468.002 387.199 468.748 390.116 469.278L405.627 472.062C413.449 473.488 419.266 475.891 423.078 479.271C426.922 482.619 428.861 487.11 428.895 492.744C428.861 498.18 427.237 502.903 424.022 506.913C420.841 510.891 416.482 513.973 410.947 516.161C405.445 518.315 399.164 519.392 392.105 519.392C380.438 519.392 371.307 517.006 364.711 512.233C358.149 507.46 354.486 501.163 353.724 493.341H380.968C381.333 495.76 382.526 497.633 384.548 498.959C386.603 500.251 389.188 500.898 392.304 500.898C394.823 500.898 396.894 500.467 398.518 499.605C400.175 498.743 401.02 497.517 401.054 495.926C401.02 494.468 400.291 493.308 398.866 492.446C397.474 491.584 395.287 490.888 392.304 490.358L378.781 487.972C370.992 486.613 365.159 484.027 361.281 480.216C357.403 476.404 355.481 471.499 355.514 465.5C355.481 460.197 356.873 455.706 359.69 452.027C362.54 448.315 366.6 445.498 371.87 443.575C377.173 441.62 383.454 440.642 390.713 440.642C401.75 440.642 410.45 442.929 416.814 447.503C423.21 452.077 426.574 458.407 426.906 466.494ZM484.949 441.636V461.523H434.637V441.636H484.949ZM444.381 423.341H471.824V493.44C471.824 494.501 472.007 495.396 472.371 496.125C472.736 496.821 473.299 497.351 474.061 497.716C474.824 498.047 475.801 498.213 476.995 498.213C477.823 498.213 478.784 498.114 479.878 497.915C481.005 497.716 481.834 497.55 482.364 497.418L486.341 516.707C485.115 517.072 483.358 517.519 481.071 518.05C478.818 518.58 476.133 518.928 473.017 519.094C466.72 519.425 461.434 518.779 457.158 517.155C452.882 515.498 449.667 512.896 447.513 509.349C445.359 505.803 444.315 501.362 444.381 496.026V423.341ZM531.918 519.392C523.765 519.392 516.738 517.834 510.839 514.719C504.972 511.57 500.448 507.062 497.266 501.196C494.118 495.296 492.543 488.237 492.543 480.017C492.543 472.129 494.134 465.235 497.316 459.335C500.498 453.436 504.989 448.845 510.789 445.564C516.589 442.283 523.433 440.642 531.322 440.642C537.089 440.642 542.309 441.537 546.982 443.327C551.656 445.116 555.649 447.718 558.964 451.132C562.278 454.513 564.83 458.623 566.62 463.462C568.41 468.301 569.305 473.753 569.305 479.818V486.182H501.094V471.068H544.049C544.016 468.881 543.452 466.958 542.359 465.301C541.298 463.611 539.856 462.302 538.033 461.374C536.244 460.412 534.205 459.932 531.918 459.932C529.698 459.932 527.659 460.412 525.803 461.374C523.947 462.302 522.456 463.594 521.329 465.251C520.235 466.909 519.655 468.848 519.589 471.068V487.375C519.589 489.828 520.103 492.015 521.13 493.938C522.157 495.86 523.632 497.368 525.555 498.462C527.477 499.555 529.797 500.102 532.515 500.102C534.404 500.102 536.128 499.837 537.685 499.307C539.276 498.777 540.635 498.014 541.762 497.02C542.889 495.992 543.718 494.766 544.248 493.341H569.305C568.443 498.644 566.405 503.251 563.19 507.162C559.975 511.04 555.716 514.056 550.413 516.21C545.143 518.331 538.978 519.392 531.918 519.392ZM580.503 518V441.636H607.151V456.153H607.946C609.338 450.784 611.542 446.857 614.559 444.371C617.608 441.885 621.171 440.642 625.248 440.642C626.441 440.642 627.617 440.741 628.777 440.94C629.971 441.106 631.114 441.355 632.208 441.686V465.102C630.849 464.638 629.175 464.29 627.186 464.058C625.198 463.826 623.491 463.71 622.066 463.71C619.381 463.71 616.962 464.323 614.807 465.55C612.686 466.743 611.012 468.433 609.786 470.621C608.56 472.775 607.946 475.311 607.946 478.227V518H580.503Z" fill="url(#paint1_linear_13_4)"/>
<path d="M668.699 416.182H703.103L726.767 473.852H727.961L751.625 416.182H786.029V518H758.983V459.136H758.188L735.517 517.205H719.211L696.54 458.739H695.745V518H668.699V416.182ZM836.316 519.392C828.03 519.392 820.938 517.751 815.038 514.47C809.138 511.156 804.614 506.549 801.466 500.649C798.317 494.716 796.743 487.839 796.743 480.017C796.743 472.195 798.317 465.334 801.466 459.435C804.614 453.502 809.138 448.895 815.038 445.614C820.938 442.299 828.03 440.642 836.316 440.642C844.602 440.642 851.695 442.299 857.595 445.614C863.494 448.895 868.019 453.502 871.167 459.435C874.316 465.334 875.89 472.195 875.89 480.017C875.89 487.839 874.316 494.716 871.167 500.649C868.019 506.549 863.494 511.156 857.595 514.47C851.695 517.751 844.602 519.392 836.316 519.392ZM836.515 499.108C838.835 499.108 840.841 498.329 842.531 496.771C844.221 495.214 845.53 492.993 846.458 490.109C847.386 487.226 847.85 483.795 847.85 479.818C847.85 475.808 847.386 472.377 846.458 469.527C845.53 466.643 844.221 464.423 842.531 462.865C840.841 461.307 838.835 460.528 836.515 460.528C834.063 460.528 831.958 461.307 830.201 462.865C828.445 464.423 827.102 466.643 826.174 469.527C825.246 472.377 824.782 475.808 824.782 479.818C824.782 483.795 825.246 487.226 826.174 490.109C827.102 492.993 828.445 495.214 830.201 496.771C831.958 498.329 834.063 499.108 836.515 499.108ZM914.669 518.994C909.233 518.994 904.228 517.569 899.654 514.719C895.114 511.868 891.468 507.543 888.717 501.743C885.999 495.943 884.64 488.634 884.64 479.818C884.64 470.604 886.065 463.114 888.916 457.347C891.799 451.58 895.511 447.354 900.052 444.669C904.626 441.984 909.432 440.642 914.47 440.642C918.248 440.642 921.563 441.305 924.413 442.631C927.263 443.923 929.65 445.663 931.572 447.851C933.494 450.005 934.953 452.375 935.947 454.96H936.345V416.182H963.788V518H936.544V505.472H935.947C934.886 508.057 933.362 510.377 931.373 512.432C929.418 514.454 927.031 516.061 924.214 517.254C921.43 518.414 918.248 518.994 914.669 518.994ZM924.811 497.915C927.33 497.915 929.484 497.186 931.274 495.727C933.097 494.236 934.489 492.148 935.45 489.463C936.444 486.745 936.941 483.53 936.941 479.818C936.941 476.04 936.444 472.808 935.45 470.124C934.489 467.406 933.097 465.334 931.274 463.909C929.484 462.451 927.33 461.722 924.811 461.722C922.292 461.722 920.137 462.451 918.348 463.909C916.591 465.334 915.232 467.406 914.271 470.124C913.343 472.808 912.879 476.04 912.879 479.818C912.879 483.597 913.343 486.845 914.271 489.562C915.232 492.247 916.591 494.319 918.348 495.777C920.137 497.202 922.292 497.915 924.811 497.915ZM1013.85 519.392C1005.7 519.392 998.672 517.834 992.772 514.719C986.906 511.57 982.382 507.062 979.2 501.196C976.051 495.296 974.477 488.237 974.477 480.017C974.477 472.129 976.068 465.235 979.25 459.335C982.431 453.436 986.922 448.845 992.723 445.564C998.523 442.283 1005.37 440.642 1013.26 440.642C1019.02 440.642 1024.24 441.537 1028.92 443.327C1033.59 445.116 1037.58 447.718 1040.9 451.132C1044.21 454.513 1046.76 458.623 1048.55 463.462C1050.34 468.301 1051.24 473.753 1051.24 479.818V486.182H983.028V471.068H1025.98C1025.95 468.881 1025.39 466.958 1024.29 465.301C1023.23 463.611 1021.79 462.302 1019.97 461.374C1018.18 460.412 1016.14 459.932 1013.85 459.932C1011.63 459.932 1009.59 460.412 1007.74 461.374C1005.88 462.302 1004.39 463.594 1003.26 465.251C1002.17 466.909 1001.59 468.848 1001.52 471.068V487.375C1001.52 489.828 1002.04 492.015 1003.06 493.938C1004.09 495.86 1005.57 497.368 1007.49 498.462C1009.41 499.555 1011.73 500.102 1014.45 500.102C1016.34 500.102 1018.06 499.837 1019.62 499.307C1021.21 498.777 1022.57 498.014 1023.7 497.02C1024.82 495.992 1025.65 494.766 1026.18 493.341H1051.24C1050.38 498.644 1048.34 503.251 1045.12 507.162C1041.91 511.04 1037.65 514.056 1032.35 516.21C1027.08 518.331 1020.91 519.392 1013.85 519.392ZM1062.44 518V441.636H1089.08V456.153H1089.88C1091.27 450.784 1093.48 446.857 1096.49 444.371C1099.54 441.885 1103.1 440.642 1107.18 440.642C1108.37 440.642 1109.55 440.741 1110.71 440.94C1111.9 441.106 1113.05 441.355 1114.14 441.686V465.102C1112.78 464.638 1111.11 464.29 1109.12 464.058C1107.13 463.826 1105.42 463.71 1104 463.71C1101.31 463.71 1098.9 464.323 1096.74 465.55C1094.62 466.743 1092.95 468.433 1091.72 470.621C1090.49 472.775 1089.88 475.311 1089.88 478.227V518H1062.44ZM1150.58 475.045V518H1123.14V441.636H1149.19V456.153H1149.99C1151.64 451.314 1154.56 447.519 1158.74 444.768C1162.95 442.018 1167.85 440.642 1173.45 440.642C1178.85 440.642 1183.54 441.885 1187.52 444.371C1191.53 446.823 1194.63 450.204 1196.82 454.513C1199.04 458.821 1200.13 463.743 1200.1 469.278V518H1172.66V475.045C1172.69 471.267 1171.73 468.301 1169.77 466.146C1167.85 463.992 1165.17 462.915 1161.72 462.915C1159.47 462.915 1157.49 463.412 1155.8 464.406C1154.15 465.367 1152.87 466.759 1151.98 468.582C1151.08 470.372 1150.62 472.527 1150.58 475.045ZM169.415 669L139.386 567.182H170.21L184.131 629.824H184.926L201.432 567.182H225.693L242.199 630.023H242.994L256.915 567.182H287.739L257.71 669H231.261L213.96 612.125H213.165L195.864 669H169.415ZM324.789 670.392C316.636 670.392 309.609 668.834 303.71 665.719C297.843 662.57 293.319 658.062 290.137 652.196C286.989 646.296 285.414 639.237 285.414 631.017C285.414 623.129 287.005 616.235 290.187 610.335C293.369 604.436 297.86 599.845 303.66 596.564C309.46 593.283 316.305 591.642 324.193 591.642C329.96 591.642 335.18 592.537 339.853 594.327C344.527 596.116 348.52 598.718 351.835 602.132C355.149 605.513 357.701 609.623 359.491 614.462C361.281 619.301 362.176 624.753 362.176 630.818V637.182H293.966V622.068H336.92C336.887 619.881 336.324 617.958 335.23 616.301C334.169 614.611 332.727 613.302 330.904 612.374C329.115 611.412 327.076 610.932 324.789 610.932C322.569 610.932 320.53 611.412 318.674 612.374C316.818 613.302 315.327 614.594 314.2 616.251C313.106 617.909 312.526 619.848 312.46 622.068V638.375C312.46 640.828 312.974 643.015 314.001 644.938C315.029 646.86 316.503 648.368 318.426 649.462C320.348 650.555 322.668 651.102 325.386 651.102C327.275 651.102 328.999 650.837 330.556 650.307C332.147 649.777 333.506 649.014 334.633 648.02C335.76 646.992 336.589 645.766 337.119 644.341H362.176C361.314 649.644 359.276 654.251 356.061 658.162C352.846 662.04 348.587 665.056 343.284 667.21C338.014 669.331 331.849 670.392 324.789 670.392ZM372.977 669V567.182H400.42V605.96H400.817C401.812 603.375 403.27 601.005 405.192 598.851C407.115 596.663 409.501 594.923 412.352 593.631C415.202 592.305 418.516 591.642 422.295 591.642C427.333 591.642 432.122 592.984 436.663 595.669C441.237 598.354 444.949 602.58 447.799 608.347C450.683 614.114 452.124 621.604 452.124 630.818C452.124 639.634 450.749 646.943 447.998 652.743C445.28 658.543 441.634 662.868 437.06 665.719C432.52 668.569 427.531 669.994 422.096 669.994C418.516 669.994 415.318 669.414 412.501 668.254C409.717 667.061 407.33 665.454 405.342 663.432C403.386 661.377 401.878 659.057 400.817 656.472H400.221V669H372.977ZM399.823 630.818C399.823 634.53 400.304 637.745 401.265 640.463C402.259 643.148 403.651 645.236 405.441 646.727C407.264 648.186 409.435 648.915 411.954 648.915C414.473 648.915 416.611 648.202 418.367 646.777C420.157 645.319 421.516 643.247 422.444 640.562C423.405 637.845 423.886 634.597 423.886 630.818C423.886 627.04 423.405 623.808 422.444 621.124C421.516 618.406 420.157 616.334 418.367 614.909C416.611 613.451 414.473 612.722 411.954 612.722C409.435 612.722 407.264 613.451 405.441 614.909C403.651 616.334 402.259 618.406 401.265 621.124C400.304 623.808 399.823 627.04 399.823 630.818ZM530.278 669H491.102V567.182H529.88C540.353 567.182 549.402 569.22 557.025 573.297C564.681 577.34 570.581 583.174 574.724 590.797C578.9 598.387 580.988 607.485 580.988 618.091C580.988 628.697 578.916 637.812 574.773 645.435C570.63 653.025 564.764 658.858 557.174 662.935C549.584 666.978 540.619 669 530.278 669ZM518.744 645.534H529.283C534.321 645.534 538.613 644.722 542.16 643.098C545.739 641.474 548.457 638.673 550.313 634.696C552.202 630.719 553.147 625.184 553.147 618.091C553.147 610.998 552.186 605.463 550.263 601.486C548.374 597.509 545.59 594.708 541.911 593.084C538.265 591.46 533.791 590.648 528.488 590.648H518.744V645.534ZM630.766 670.392C622.613 670.392 615.586 668.834 609.686 665.719C603.82 662.57 599.296 658.062 596.114 652.196C592.965 646.296 591.391 639.237 591.391 631.017C591.391 623.129 592.982 616.235 596.164 610.335C599.346 604.436 603.837 599.845 609.637 596.564C615.437 593.283 622.281 591.642 630.169 591.642C635.936 591.642 641.157 592.537 645.83 594.327C650.503 596.116 654.497 598.718 657.811 602.132C661.126 605.513 663.678 609.623 665.468 614.462C667.257 619.301 668.152 624.753 668.152 630.818V637.182H599.942V622.068H642.897C642.864 619.881 642.3 617.958 641.206 616.301C640.146 614.611 638.704 613.302 636.881 612.374C635.091 611.412 633.053 610.932 630.766 610.932C628.545 610.932 626.507 611.412 624.651 612.374C622.795 613.302 621.303 614.594 620.176 616.251C619.083 617.909 618.503 619.848 618.436 622.068V638.375C618.436 640.828 618.95 643.015 619.978 644.938C621.005 646.86 622.48 648.368 624.402 649.462C626.325 650.555 628.645 651.102 631.363 651.102C633.252 651.102 634.975 650.837 636.533 650.307C638.124 649.777 639.483 649.014 640.61 648.02C641.737 646.992 642.565 645.766 643.096 644.341H668.152C667.291 649.644 665.252 654.251 662.037 658.162C658.822 662.04 654.563 665.056 649.26 667.21C643.99 669.331 637.826 670.392 630.766 670.392ZM754.397 592.636L728.744 669H696.925L671.272 592.636H700.107L712.437 643.148H713.232L725.562 592.636H754.397ZM796.469 670.392C788.316 670.392 781.289 668.834 775.39 665.719C769.523 662.57 764.999 658.062 761.817 652.196C758.668 646.296 757.094 639.237 757.094 631.017C757.094 623.129 758.685 616.235 761.867 610.335C765.049 604.436 769.54 599.845 775.34 596.564C781.14 593.283 787.984 591.642 795.873 591.642C801.64 591.642 806.86 592.537 811.533 594.327C816.206 596.116 820.2 598.718 823.515 602.132C826.829 605.513 829.381 609.623 831.171 614.462C832.961 619.301 833.855 624.753 833.855 630.818V637.182H765.645V622.068H808.6C808.567 619.881 808.003 617.958 806.909 616.301C805.849 614.611 804.407 613.302 802.584 612.374C800.794 611.412 798.756 610.932 796.469 610.932C794.248 610.932 792.21 611.412 790.354 612.374C788.498 613.302 787.007 614.594 785.88 616.251C784.786 617.909 784.206 619.848 784.14 622.068V638.375C784.14 640.828 784.653 643.015 785.681 644.938C786.708 646.86 788.183 648.368 790.105 649.462C792.028 650.555 794.348 651.102 797.066 651.102C798.955 651.102 800.678 650.837 802.236 650.307C803.827 649.777 805.186 649.014 806.313 648.02C807.44 646.992 808.268 645.766 808.799 644.341H833.855C832.994 649.644 830.955 654.251 827.74 658.162C824.525 662.04 820.266 665.056 814.963 667.21C809.694 669.331 803.529 670.392 796.469 670.392ZM872.497 567.182V669H845.054V567.182H872.497ZM923.27 670.392C914.984 670.392 907.891 668.751 901.991 665.47C896.092 662.156 891.567 657.549 888.419 651.649C885.27 645.716 883.696 638.839 883.696 631.017C883.696 623.195 885.27 616.334 888.419 610.435C891.567 604.502 896.092 599.895 901.991 596.614C907.891 593.299 914.984 591.642 923.27 591.642C931.556 591.642 938.648 593.299 944.548 596.614C950.448 599.895 954.972 604.502 958.12 610.435C961.269 616.334 962.843 623.195 962.843 631.017C962.843 638.839 961.269 645.716 958.12 651.649C954.972 657.549 950.448 662.156 944.548 665.47C938.648 668.751 931.556 670.392 923.27 670.392ZM923.468 650.108C925.788 650.108 927.794 649.329 929.484 647.771C931.174 646.214 932.484 643.993 933.412 641.109C934.34 638.226 934.804 634.795 934.804 630.818C934.804 626.808 934.34 623.377 933.412 620.527C932.484 617.643 931.174 615.423 929.484 613.865C927.794 612.307 925.788 611.528 923.468 611.528C921.016 611.528 918.911 612.307 917.154 613.865C915.398 615.423 914.056 617.643 913.127 620.527C912.199 623.377 911.735 626.808 911.735 630.818C911.735 634.795 912.199 638.226 913.127 641.109C914.056 643.993 915.398 646.214 917.154 647.771C918.911 649.329 921.016 650.108 923.468 650.108ZM973.98 697.636V592.636H1001.22V605.96H1001.82C1002.81 603.375 1004.27 601.005 1006.2 598.851C1008.12 596.663 1010.5 594.923 1013.35 593.631C1016.21 592.305 1019.52 591.642 1023.3 591.642C1028.34 591.642 1033.13 592.984 1037.67 595.669C1042.24 598.354 1045.95 602.58 1048.8 608.347C1051.69 614.114 1053.13 621.604 1053.13 630.818C1053.13 639.634 1051.75 646.943 1049 652.743C1046.28 658.543 1042.64 662.868 1038.06 665.719C1033.52 668.569 1028.53 669.994 1023.1 669.994C1019.52 669.994 1016.32 669.414 1013.5 668.254C1010.72 667.061 1008.33 665.454 1006.34 663.432C1004.39 661.377 1002.88 659.057 1001.82 656.472H1001.42V697.636H973.98ZM1000.83 630.818C1000.83 634.53 1001.31 637.745 1002.27 640.463C1003.26 643.148 1004.65 645.236 1006.44 646.727C1008.27 648.186 1010.44 648.915 1012.96 648.915C1015.48 648.915 1017.61 648.202 1019.37 646.777C1021.16 645.319 1022.52 643.247 1023.45 640.562C1024.41 637.845 1024.89 634.597 1024.89 630.818C1024.89 627.04 1024.41 623.808 1023.45 621.124C1022.52 618.406 1021.16 616.334 1019.37 614.909C1017.61 613.451 1015.48 612.722 1012.96 612.722C1010.44 612.722 1008.27 613.451 1006.44 614.909C1004.65 616.334 1003.26 618.406 1002.27 621.124C1001.31 623.808 1000.83 627.04 1000.83 630.818ZM1064.62 669V592.636H1090.68V607.153H1091.47C1093.06 602.381 1095.78 598.602 1099.62 595.818C1103.47 593.034 1108.04 591.642 1113.35 591.642C1118.72 591.642 1123.34 593.067 1127.22 595.918C1131.09 598.735 1133.43 602.48 1134.23 607.153H1135.02C1136.31 602.48 1139.07 598.735 1143.27 595.918C1147.48 593.067 1152.42 591.642 1158.09 591.642C1165.42 591.642 1171.35 593.995 1175.89 598.702C1180.46 603.408 1182.75 609.672 1182.75 617.494V669H1155.31V624.455C1155.31 621.107 1154.46 618.489 1152.77 616.599C1151.08 614.677 1148.81 613.716 1145.96 613.716C1143.14 613.716 1140.91 614.677 1139.25 616.599C1137.62 618.489 1136.81 621.107 1136.81 624.455V669H1110.56V624.455C1110.56 621.107 1109.72 618.489 1108.03 616.599C1106.34 614.677 1104.07 613.716 1101.22 613.716C1099.33 613.716 1097.7 614.147 1096.34 615.009C1094.98 615.87 1093.92 617.113 1093.16 618.737C1092.43 620.328 1092.07 622.234 1092.07 624.455V669H1064.62ZM1232.88 670.392C1224.72 670.392 1217.7 668.834 1211.8 665.719C1205.93 662.57 1201.41 658.062 1198.22 652.196C1195.07 646.296 1193.5 639.237 1193.5 631.017C1193.5 623.129 1195.09 616.235 1198.27 610.335C1201.45 604.436 1205.95 599.845 1211.75 596.564C1217.55 593.283 1224.39 591.642 1232.28 591.642C1238.05 591.642 1243.27 592.537 1247.94 594.327C1252.61 596.116 1256.61 598.718 1259.92 602.132C1263.24 605.513 1265.79 609.623 1267.58 614.462C1269.37 619.301 1270.26 624.753 1270.26 630.818V637.182H1202.05V622.068H1245.01C1244.97 619.881 1244.41 617.958 1243.32 616.301C1242.26 614.611 1240.81 613.302 1238.99 612.374C1237.2 611.412 1235.16 610.932 1232.88 610.932C1230.65 610.932 1228.62 611.412 1226.76 612.374C1224.9 613.302 1223.41 614.594 1222.29 616.251C1221.19 617.909 1220.61 619.848 1220.55 622.068V638.375C1220.55 640.828 1221.06 643.015 1222.09 644.938C1223.11 646.86 1224.59 648.368 1226.51 649.462C1228.43 650.555 1230.75 651.102 1233.47 651.102C1235.36 651.102 1237.08 650.837 1238.64 650.307C1240.23 649.777 1241.59 649.014 1242.72 648.02C1243.85 646.992 1244.67 645.766 1245.2 644.341H1270.26C1269.4 649.644 1267.36 654.251 1264.15 658.162C1260.93 662.04 1256.67 665.056 1251.37 667.21C1246.1 669.331 1239.94 670.392 1232.88 670.392ZM1308.9 626.045V669H1281.46V592.636H1307.51V607.153H1308.31C1309.96 602.314 1312.88 598.519 1317.06 595.768C1321.27 593.018 1326.17 591.642 1331.77 591.642C1337.18 591.642 1341.87 592.885 1345.84 595.371C1349.85 597.823 1352.95 601.204 1355.14 605.513C1357.36 609.821 1358.45 614.743 1358.42 620.278V669H1330.98V626.045C1331.01 622.267 1330.05 619.301 1328.09 617.146C1326.17 614.992 1323.49 613.915 1320.04 613.915C1317.79 613.915 1315.81 614.412 1314.12 615.406C1312.47 616.367 1311.19 617.759 1310.3 619.582C1309.4 621.372 1308.94 623.527 1308.9 626.045ZM1417.51 592.636V612.523H1367.2V592.636H1417.51ZM1376.94 574.341H1404.38V644.44C1404.38 645.501 1404.57 646.396 1404.93 647.125C1405.29 647.821 1405.86 648.351 1406.62 648.716C1407.38 649.047 1408.36 649.213 1409.55 649.213C1410.38 649.213 1411.34 649.114 1412.44 648.915C1413.56 648.716 1414.39 648.55 1414.92 648.418L1418.9 667.707C1417.67 668.072 1415.92 668.519 1413.63 669.05C1411.38 669.58 1408.69 669.928 1405.58 670.094C1399.28 670.425 1393.99 669.779 1389.72 668.155C1385.44 666.498 1382.23 663.896 1380.07 660.349C1377.92 656.803 1376.87 652.362 1376.94 647.026V574.341ZM169.415 820L139.386 718.182H170.21L184.131 780.824H184.926L201.432 718.182H225.693L242.199 781.023H242.994L256.915 718.182H287.739L257.71 820H231.261L213.96 763.125H213.165L195.864 820H169.415ZM297.085 820V743.636H324.528V820H297.085ZM310.807 735.682C307.095 735.682 303.913 734.455 301.261 732.003C298.61 729.55 297.284 726.6 297.284 723.153C297.284 719.706 298.61 716.757 301.261 714.304C303.913 711.851 307.095 710.625 310.807 710.625C314.552 710.625 317.734 711.851 320.352 714.304C323.004 716.757 324.33 719.706 324.33 723.153C324.33 726.6 323.004 729.55 320.352 732.003C317.734 734.455 314.552 735.682 310.807 735.682ZM384.051 743.636V763.523H333.738V743.636H384.051ZM343.483 725.341H370.926V795.44C370.926 796.501 371.108 797.396 371.473 798.125C371.837 798.821 372.401 799.351 373.163 799.716C373.925 800.047 374.903 800.213 376.096 800.213C376.925 800.213 377.886 800.114 378.98 799.915C380.107 799.716 380.935 799.55 381.466 799.418L385.443 818.707C384.217 819.072 382.46 819.519 380.173 820.05C377.919 820.58 375.234 820.928 372.119 821.094C365.822 821.425 360.535 820.779 356.26 819.155C351.984 817.498 348.769 814.896 346.615 811.349C344.46 807.803 343.416 803.362 343.483 798.026V725.341ZM424.333 777.045V820H396.89V718.182H423.339V758.153H424.134C425.858 753.281 428.725 749.486 432.735 746.768C436.746 744.018 441.568 742.642 447.202 742.642C452.605 742.642 457.295 743.868 461.272 746.321C465.282 748.774 468.381 752.154 470.569 756.463C472.79 760.772 473.883 765.71 473.85 771.278V820H446.407V777.045C446.44 773.267 445.496 770.301 443.573 768.146C441.684 765.992 438.983 764.915 435.469 764.915C433.249 764.915 431.293 765.412 429.603 766.406C427.946 767.367 426.653 768.759 425.725 770.582C424.83 772.372 424.366 774.527 424.333 777.045ZM536.567 821.193C531.695 821.193 527.386 820.398 523.641 818.807C519.929 817.183 517.012 814.73 514.891 811.449C512.769 808.168 511.709 803.991 511.709 798.92C511.709 794.744 512.421 791.181 513.847 788.232C515.272 785.249 517.26 782.812 519.812 780.923C522.365 779.034 525.331 777.592 528.712 776.598C532.125 775.604 535.804 774.957 539.749 774.659C544.024 774.328 547.455 773.93 550.04 773.466C552.658 772.969 554.547 772.289 555.707 771.428C556.867 770.533 557.447 769.356 557.447 767.898V767.699C557.447 765.71 556.685 764.186 555.161 763.125C553.636 762.064 551.68 761.534 549.294 761.534C546.676 761.534 544.538 762.114 542.881 763.274C541.257 764.401 540.279 766.141 539.947 768.494H514.692C515.023 763.854 516.498 759.579 519.116 755.668C521.768 751.723 525.629 748.575 530.7 746.222C535.771 743.835 542.102 742.642 549.692 742.642C555.161 742.642 560.066 743.288 564.408 744.581C568.75 745.84 572.445 747.614 575.494 749.901C578.544 752.154 580.864 754.806 582.455 757.855C584.079 760.871 584.891 764.152 584.891 767.699V820H559.237V809.261H558.641C557.116 812.112 555.26 814.415 553.072 816.172C550.918 817.929 548.449 819.205 545.665 820C542.914 820.795 539.881 821.193 536.567 821.193ZM545.516 803.892C547.604 803.892 549.559 803.461 551.382 802.599C553.238 801.738 554.746 800.495 555.906 798.871C557.066 797.247 557.646 795.275 557.646 792.955V786.591C556.917 786.889 556.138 787.171 555.31 787.436C554.514 787.701 553.652 787.95 552.724 788.182C551.83 788.414 550.868 788.629 549.841 788.828C548.847 789.027 547.803 789.209 546.709 789.375C544.588 789.706 542.848 790.253 541.489 791.016C540.163 791.745 539.169 792.656 538.506 793.75C537.876 794.811 537.561 796.004 537.561 797.33C537.561 799.451 538.307 801.075 539.798 802.202C541.29 803.329 543.196 803.892 545.516 803.892ZM631.847 971H602.018L635.626 869.182H673.41L707.018 971H677.188L654.915 897.222H654.12L631.847 971ZM626.279 930.83H682.359V951.511H626.279V930.83ZM717.222 999.636V894.636H744.466V907.96H745.063C746.057 905.375 747.516 903.005 749.438 900.851C751.36 898.663 753.747 896.923 756.597 895.631C759.447 894.305 762.762 893.642 766.54 893.642C771.578 893.642 776.367 894.984 780.908 897.669C785.482 900.354 789.194 904.58 792.044 910.347C794.928 916.114 796.37 923.604 796.37 932.818C796.37 941.634 794.994 948.943 792.243 954.743C789.525 960.543 785.88 964.868 781.306 967.719C776.765 970.569 771.777 971.994 766.341 971.994C762.762 971.994 759.563 971.414 756.746 970.254C753.962 969.061 751.576 967.454 749.587 965.432C747.632 963.377 746.123 961.057 745.063 958.472H744.665V999.636H717.222ZM744.069 932.818C744.069 936.53 744.549 939.745 745.51 942.463C746.505 945.148 747.897 947.236 749.686 948.727C751.509 950.186 753.68 950.915 756.199 950.915C758.718 950.915 760.856 950.202 762.613 948.777C764.402 947.319 765.761 945.247 766.689 942.562C767.65 939.845 768.131 936.597 768.131 932.818C768.131 929.04 767.65 925.808 766.689 923.124C765.761 920.406 764.402 918.334 762.613 916.909C760.856 915.451 758.718 914.722 756.199 914.722C753.68 914.722 751.509 915.451 749.686 916.909C747.897 918.334 746.505 920.406 745.51 923.124C744.549 925.808 744.069 929.04 744.069 932.818ZM807.866 999.636V894.636H835.111V907.96H835.707C836.702 905.375 838.16 903.005 840.082 900.851C842.005 898.663 844.391 896.923 847.241 895.631C850.092 894.305 853.406 893.642 857.185 893.642C862.223 893.642 867.012 894.984 871.553 897.669C876.126 900.354 879.839 904.58 882.689 910.347C885.572 916.114 887.014 923.604 887.014 932.818C887.014 941.634 885.639 948.943 882.888 954.743C880.17 960.543 876.524 964.868 871.95 967.719C867.41 970.569 862.421 971.994 856.986 971.994C853.406 971.994 850.208 971.414 847.391 970.254C844.607 969.061 842.22 967.454 840.232 965.432C838.276 963.377 836.768 961.057 835.707 958.472H835.31V999.636H807.866ZM834.713 932.818C834.713 936.53 835.194 939.745 836.155 942.463C837.149 945.148 838.541 947.236 840.331 948.727C842.154 950.186 844.325 950.915 846.844 950.915C849.363 950.915 851.5 950.202 853.257 948.777C855.047 947.319 856.406 945.247 857.334 942.562C858.295 939.845 858.776 936.597 858.776 932.818C858.776 929.04 858.295 925.808 857.334 923.124C856.406 920.406 855.047 918.334 853.257 916.909C851.5 915.451 849.363 914.722 846.844 914.722C844.325 914.722 842.154 915.451 840.331 916.909C838.541 918.334 837.149 920.406 836.155 923.124C835.194 925.808 834.713 929.04 834.713 932.818ZM898.511 971V894.636H925.159V909.153H925.954C927.346 903.784 929.55 899.857 932.566 897.371C935.616 894.885 939.179 893.642 943.255 893.642C944.449 893.642 945.625 893.741 946.785 893.94C947.978 894.106 949.122 894.355 950.216 894.686V918.102C948.857 917.638 947.183 917.29 945.194 917.058C943.206 916.826 941.499 916.71 940.074 916.71C937.389 916.71 934.969 917.323 932.815 918.55C930.694 919.743 929.02 921.433 927.794 923.621C926.567 925.775 925.954 928.311 925.954 931.227V971H898.511ZM991.629 972.392C983.343 972.392 976.25 970.751 970.35 967.47C964.451 964.156 959.927 959.549 956.778 953.649C953.629 947.716 952.055 940.839 952.055 933.017C952.055 925.195 953.629 918.334 956.778 912.435C959.927 906.502 964.451 901.895 970.35 898.614C976.25 895.299 983.343 893.642 991.629 893.642C999.915 893.642 1007.01 895.299 1012.91 898.614C1018.81 901.895 1023.33 906.502 1026.48 912.435C1029.63 918.334 1031.2 925.195 1031.2 933.017C1031.2 940.839 1029.63 947.716 1026.48 953.649C1023.33 959.549 1018.81 964.156 1012.91 967.47C1007.01 970.751 999.915 972.392 991.629 972.392ZM991.828 952.108C994.148 952.108 996.153 951.329 997.843 949.771C999.534 948.214 1000.84 945.993 1001.77 943.109C1002.7 940.226 1003.16 936.795 1003.16 932.818C1003.16 928.808 1002.7 925.377 1001.77 922.527C1000.84 919.643 999.534 917.423 997.843 915.865C996.153 914.307 994.148 913.528 991.828 913.528C989.375 913.528 987.27 914.307 985.514 915.865C983.757 917.423 982.415 919.643 981.487 922.527C980.559 925.377 980.095 928.808 980.095 932.818C980.095 936.795 980.559 940.226 981.487 943.109C982.415 945.993 983.757 948.214 985.514 949.771C987.27 951.329 989.375 952.108 991.828 952.108ZM1063.62 972.193C1058.75 972.193 1054.44 971.398 1050.69 969.807C1046.98 968.183 1044.06 965.73 1041.94 962.449C1039.82 959.168 1038.76 954.991 1038.76 949.92C1038.76 945.744 1039.47 942.181 1040.9 939.232C1042.32 936.249 1044.31 933.812 1046.86 931.923C1049.42 930.034 1052.38 928.592 1055.76 927.598C1059.18 926.604 1062.86 925.957 1066.8 925.659C1071.07 925.328 1074.51 924.93 1077.09 924.466C1079.71 923.969 1081.6 923.289 1082.76 922.428C1083.92 921.533 1084.5 920.356 1084.5 918.898V918.699C1084.5 916.71 1083.74 915.186 1082.21 914.125C1080.69 913.064 1078.73 912.534 1076.34 912.534C1073.73 912.534 1071.59 913.114 1069.93 914.274C1068.31 915.401 1067.33 917.141 1067 919.494H1041.74C1042.07 914.854 1043.55 910.579 1046.17 906.668C1048.82 902.723 1052.68 899.575 1057.75 897.222C1062.82 894.835 1069.15 893.642 1076.74 893.642C1082.21 893.642 1087.12 894.288 1091.46 895.581C1095.8 896.84 1099.5 898.614 1102.55 900.901C1105.59 903.154 1107.91 905.806 1109.51 908.855C1111.13 911.871 1111.94 915.152 1111.94 918.699V971H1086.29V960.261H1085.69C1084.17 963.112 1082.31 965.415 1080.12 967.172C1077.97 968.929 1075.5 970.205 1072.72 971C1069.96 971.795 1066.93 972.193 1063.62 972.193ZM1072.57 954.892C1074.65 954.892 1076.61 954.461 1078.43 953.599C1080.29 952.738 1081.8 951.495 1082.96 949.871C1084.12 948.247 1084.7 946.275 1084.7 943.955V937.591C1083.97 937.889 1083.19 938.171 1082.36 938.436C1081.56 938.701 1080.7 938.95 1079.78 939.182C1078.88 939.414 1077.92 939.629 1076.89 939.828C1075.9 940.027 1074.85 940.209 1073.76 940.375C1071.64 940.706 1069.9 941.253 1068.54 942.016C1067.21 942.745 1066.22 943.656 1065.56 944.75C1064.93 945.811 1064.61 947.004 1064.61 948.33C1064.61 950.451 1065.36 952.075 1066.85 953.202C1068.34 954.329 1070.25 954.892 1072.57 954.892ZM1161.84 972.392C1153.56 972.392 1146.46 970.751 1140.57 967.47C1134.67 964.156 1130.14 959.549 1126.99 953.649C1123.84 947.716 1122.27 940.839 1122.27 933.017C1122.27 925.195 1123.84 918.334 1126.99 912.435C1130.14 906.502 1134.67 901.895 1140.57 898.614C1146.46 895.299 1153.56 893.642 1161.84 893.642C1169.33 893.642 1175.81 895.001 1181.28 897.719C1186.78 900.403 1191.04 904.215 1194.06 909.153C1197.08 914.059 1198.6 919.826 1198.63 926.455H1173.18C1172.81 922.444 1171.65 919.395 1169.7 917.307C1167.78 915.186 1165.29 914.125 1162.24 914.125C1159.86 914.125 1157.77 914.821 1155.98 916.213C1154.19 917.572 1152.8 919.643 1151.8 922.428C1150.81 925.179 1150.31 928.642 1150.31 932.818C1150.31 936.994 1150.81 940.474 1151.8 943.259C1152.8 946.009 1154.19 948.081 1155.98 949.473C1157.77 950.832 1159.86 951.511 1162.24 951.511C1164.26 951.511 1166.05 951.047 1167.61 950.119C1169.17 949.158 1170.43 947.766 1171.39 945.943C1172.38 944.087 1172.98 941.833 1173.18 939.182H1198.63C1198.53 945.91 1196.99 951.777 1194.01 956.781C1191.03 961.753 1186.8 965.598 1181.33 968.315C1175.9 971.033 1169.4 972.392 1161.84 972.392ZM1237.4 928.045V971H1209.96V869.182H1236.41V909.153H1237.2C1238.92 904.281 1241.79 900.486 1245.8 897.768C1249.81 895.018 1254.63 893.642 1260.27 893.642C1265.67 893.642 1270.36 894.868 1274.34 897.321C1278.35 899.774 1281.45 903.154 1283.64 907.463C1285.86 911.772 1286.95 916.71 1286.92 922.278V971H1259.47V928.045C1259.51 924.267 1258.56 921.301 1256.64 919.146C1254.75 916.992 1252.05 915.915 1248.54 915.915C1246.32 915.915 1244.36 916.412 1242.67 917.406C1241.01 918.367 1239.72 919.759 1238.79 921.582C1237.9 923.372 1237.43 925.527 1237.4 928.045Z" fill="white"/>
<path d="M625.496 820V718.182H669.445C677.002 718.182 683.614 719.673 689.282 722.656C694.949 725.639 699.357 729.832 702.506 735.234C705.655 740.637 707.229 746.951 707.229 754.176C707.229 761.468 705.605 767.782 702.357 773.118C699.142 778.454 694.618 782.564 688.784 785.447C682.984 788.331 676.206 789.773 668.451 789.773H642.201V768.295H662.882C666.131 768.295 668.898 767.732 671.185 766.605C673.505 765.445 675.278 763.804 676.505 761.683C677.764 759.562 678.394 757.06 678.394 754.176C678.394 751.259 677.764 748.774 676.505 746.719C675.278 744.631 673.505 743.04 671.185 741.946C668.898 740.819 666.131 740.256 662.882 740.256H653.138V820H625.496ZM717.769 820V743.636H744.417V758.153H745.212C746.604 752.784 748.808 748.857 751.824 746.371C754.873 743.885 758.436 742.642 762.513 742.642C763.706 742.642 764.883 742.741 766.043 742.94C767.236 743.106 768.38 743.355 769.473 743.686V767.102C768.114 766.638 766.441 766.29 764.452 766.058C762.463 765.826 760.757 765.71 759.331 765.71C756.647 765.71 754.227 766.323 752.073 767.55C749.952 768.743 748.278 770.433 747.051 772.621C745.825 774.775 745.212 777.311 745.212 780.227V820H717.769ZM810.887 821.392C802.601 821.392 795.508 819.751 789.608 816.47C783.709 813.156 779.185 808.549 776.036 802.649C772.887 796.716 771.313 789.839 771.313 782.017C771.313 774.195 772.887 767.334 776.036 761.435C779.185 755.502 783.709 750.895 789.608 747.614C795.508 744.299 802.601 742.642 810.887 742.642C819.173 742.642 826.266 744.299 832.165 747.614C838.065 750.895 842.589 755.502 845.738 761.435C848.886 767.334 850.461 774.195 850.461 782.017C850.461 789.839 848.886 796.716 845.738 802.649C842.589 808.549 838.065 813.156 832.165 816.47C826.266 819.751 819.173 821.392 810.887 821.392ZM811.086 801.108C813.406 801.108 815.411 800.329 817.101 798.771C818.792 797.214 820.101 794.993 821.029 792.109C821.957 789.226 822.421 785.795 822.421 781.818C822.421 777.808 821.957 774.377 821.029 771.527C820.101 768.643 818.792 766.423 817.101 764.865C815.411 763.307 813.406 762.528 811.086 762.528C808.633 762.528 806.528 763.307 804.772 764.865C803.015 766.423 801.673 768.643 800.745 771.527C799.817 774.377 799.353 777.808 799.353 781.818C799.353 785.795 799.817 789.226 800.745 792.109C801.673 794.993 803.015 797.214 804.772 798.771C806.528 800.329 808.633 801.108 811.086 801.108ZM861.597 743.636H889.04V822.585C889.04 829.28 887.632 834.517 884.814 838.295C882.03 842.074 878.119 844.742 873.081 846.3C868.043 847.857 862.16 848.636 855.432 848.636C854.438 848.636 853.526 848.62 852.698 848.587C851.836 848.554 850.891 848.504 849.864 848.438V828.153C850.527 828.22 851.107 828.269 851.604 828.303C852.068 828.336 852.549 828.352 853.046 828.352C856.327 828.352 858.564 827.839 859.757 826.811C860.984 825.817 861.597 824.209 861.597 821.989V743.636ZM875.319 735.682C871.606 735.682 868.425 734.455 865.773 732.003C863.122 729.55 861.796 726.6 861.796 723.153C861.796 719.706 863.122 716.757 865.773 714.304C868.425 711.851 871.606 710.625 875.319 710.625C879.064 710.625 882.246 711.851 884.864 714.304C887.516 716.757 888.841 719.706 888.841 723.153C888.841 726.6 887.516 729.55 884.864 732.003C882.246 734.455 879.064 735.682 875.319 735.682ZM939.614 821.392C931.46 821.392 924.434 819.834 918.534 816.719C912.668 813.57 908.143 809.062 904.962 803.196C901.813 797.296 900.239 790.237 900.239 782.017C900.239 774.129 901.83 767.235 905.011 761.335C908.193 755.436 912.684 750.845 918.484 747.564C924.285 744.283 931.129 742.642 939.017 742.642C944.784 742.642 950.004 743.537 954.678 745.327C959.351 747.116 963.345 749.718 966.659 753.132C969.973 756.513 972.526 760.623 974.315 765.462C976.105 770.301 977 775.753 977 781.818V788.182H908.79V773.068H951.744C951.711 770.881 951.148 768.958 950.054 767.301C948.993 765.611 947.552 764.302 945.729 763.374C943.939 762.412 941.901 761.932 939.614 761.932C937.393 761.932 935.355 762.412 933.499 763.374C931.643 764.302 930.151 765.594 929.024 767.251C927.93 768.909 927.35 770.848 927.284 773.068V789.375C927.284 791.828 927.798 794.015 928.825 795.938C929.853 797.86 931.328 799.368 933.25 800.462C935.172 801.555 937.492 802.102 940.21 802.102C942.099 802.102 943.823 801.837 945.381 801.307C946.972 800.777 948.33 800.014 949.457 799.02C950.584 797.992 951.413 796.766 951.943 795.341H977C976.138 800.644 974.1 805.251 970.885 809.162C967.67 813.04 963.411 816.056 958.108 818.21C952.838 820.331 946.673 821.392 939.614 821.392ZM1024.99 821.392C1016.7 821.392 1009.61 819.751 1003.71 816.47C997.81 813.156 993.286 808.549 990.137 802.649C986.989 796.716 985.414 789.839 985.414 782.017C985.414 774.195 986.989 767.334 990.137 761.435C993.286 755.502 997.81 750.895 1003.71 747.614C1009.61 744.299 1016.7 742.642 1024.99 742.642C1032.48 742.642 1038.96 744.001 1044.43 746.719C1049.93 749.403 1054.19 753.215 1057.2 758.153C1060.22 763.059 1061.74 768.826 1061.78 775.455H1036.32C1035.96 771.444 1034.8 768.395 1032.84 766.307C1030.92 764.186 1028.44 763.125 1025.39 763.125C1023 763.125 1020.91 763.821 1019.12 765.213C1017.33 766.572 1015.94 768.643 1014.95 771.428C1013.95 774.179 1013.45 777.642 1013.45 781.818C1013.45 785.994 1013.95 789.474 1014.95 792.259C1015.94 795.009 1017.33 797.081 1019.12 798.473C1020.91 799.832 1023 800.511 1025.39 800.511C1027.41 800.511 1029.2 800.047 1030.76 799.119C1032.31 798.158 1033.57 796.766 1034.53 794.943C1035.53 793.087 1036.12 790.833 1036.32 788.182H1061.78C1061.68 794.91 1060.14 800.777 1057.15 805.781C1054.17 810.753 1049.95 814.598 1044.48 817.315C1039.04 820.033 1032.55 821.392 1024.99 821.392ZM1118.64 743.636V763.523H1068.33V743.636H1118.64ZM1078.07 725.341H1105.52V795.44C1105.52 796.501 1105.7 797.396 1106.06 798.125C1106.43 798.821 1106.99 799.351 1107.75 799.716C1108.52 800.047 1109.49 800.213 1110.69 800.213C1111.51 800.213 1112.48 800.114 1113.57 799.915C1114.7 799.716 1115.53 799.55 1116.06 799.418L1120.03 818.707C1118.81 819.072 1117.05 819.519 1114.76 820.05C1112.51 820.58 1109.82 820.928 1106.71 821.094C1100.41 821.425 1095.13 820.779 1090.85 819.155C1086.57 817.498 1083.36 814.896 1081.2 811.349C1079.05 807.803 1078.01 803.362 1078.07 798.026V725.341ZM143.562 971V869.182H187.71C195.466 869.182 201.979 870.226 207.249 872.314C212.552 874.402 216.545 877.352 219.23 881.163C221.948 884.975 223.307 889.466 223.307 894.636C223.307 898.382 222.478 901.795 220.821 904.878C219.197 907.96 216.91 910.545 213.96 912.634C211.01 914.688 207.563 916.114 203.619 916.909V917.903C207.994 918.069 211.972 919.179 215.551 921.234C219.131 923.256 221.981 926.057 224.102 929.636C226.223 933.183 227.284 937.359 227.284 942.165C227.284 947.733 225.826 952.688 222.909 957.03C220.026 961.372 215.916 964.786 210.58 967.271C205.243 969.757 198.88 971 191.489 971H143.562ZM171.205 948.926H184.131C188.771 948.926 192.251 948.064 194.571 946.341C196.891 944.584 198.051 941.999 198.051 938.585C198.051 936.199 197.504 934.177 196.411 932.52C195.317 930.863 193.759 929.603 191.737 928.741C189.749 927.88 187.346 927.449 184.528 927.449H171.205V948.926ZM171.205 910.347H182.54C184.959 910.347 187.097 909.965 188.953 909.203C190.809 908.441 192.251 907.347 193.278 905.922C194.339 904.464 194.869 902.69 194.869 900.602C194.869 897.454 193.742 895.051 191.489 893.393C189.235 891.703 186.384 890.858 182.938 890.858H171.205V910.347ZM258.754 972.193C253.882 972.193 249.573 971.398 245.828 969.807C242.116 968.183 239.199 965.73 237.078 962.449C234.957 959.168 233.896 954.991 233.896 949.92C233.896 945.744 234.609 942.181 236.034 939.232C237.459 936.249 239.448 933.812 242 931.923C244.552 930.034 247.518 928.592 250.899 927.598C254.313 926.604 257.992 925.957 261.936 925.659C266.212 925.328 269.642 924.93 272.227 924.466C274.846 923.969 276.735 923.289 277.895 922.428C279.055 921.533 279.635 920.356 279.635 918.898V918.699C279.635 916.71 278.873 915.186 277.348 914.125C275.823 913.064 273.868 912.534 271.482 912.534C268.863 912.534 266.725 913.114 265.068 914.274C263.444 915.401 262.466 917.141 262.135 919.494H236.879C237.211 914.854 238.686 910.579 241.304 906.668C243.955 902.723 247.817 899.575 252.888 897.222C257.959 894.835 264.289 893.642 271.879 893.642C277.348 893.642 282.253 894.288 286.595 895.581C290.937 896.84 294.633 898.614 297.682 900.901C300.731 903.154 303.051 905.806 304.642 908.855C306.266 911.871 307.078 915.152 307.078 918.699V971H281.425V960.261H280.828C279.304 963.112 277.447 965.415 275.26 967.172C273.106 968.929 270.636 970.205 267.852 971C265.101 971.795 262.069 972.193 258.754 972.193ZM267.703 954.892C269.791 954.892 271.747 954.461 273.57 953.599C275.426 952.738 276.934 951.495 278.094 949.871C279.254 948.247 279.834 946.275 279.834 943.955V937.591C279.105 937.889 278.326 938.171 277.497 938.436C276.702 938.701 275.84 938.95 274.912 939.182C274.017 939.414 273.056 939.629 272.028 939.828C271.034 940.027 269.99 940.209 268.896 940.375C266.775 940.706 265.035 941.253 263.676 942.016C262.35 942.745 261.356 943.656 260.693 944.75C260.063 945.811 259.749 947.004 259.749 948.33C259.749 950.451 260.494 952.075 261.986 953.202C263.477 954.329 265.383 954.892 267.703 954.892ZM389.992 919.494H364.736C364.604 917.937 364.057 916.594 363.096 915.467C362.134 914.34 360.891 913.479 359.367 912.882C357.875 912.252 356.218 911.938 354.395 911.938C352.042 911.938 350.02 912.368 348.33 913.23C346.64 914.092 345.811 915.318 345.844 916.909C345.811 918.036 346.292 919.08 347.286 920.041C348.313 921.002 350.285 921.748 353.202 922.278L368.713 925.062C376.535 926.488 382.352 928.891 386.164 932.271C390.008 935.619 391.947 940.11 391.98 945.744C391.947 951.18 390.323 955.903 387.108 959.913C383.926 963.891 379.568 966.973 374.033 969.161C368.531 971.315 362.25 972.392 355.191 972.392C343.524 972.392 334.393 970.006 327.797 965.233C321.235 960.46 317.572 954.163 316.81 946.341H344.054C344.419 948.76 345.612 950.633 347.634 951.959C349.689 953.251 352.274 953.898 355.39 953.898C357.908 953.898 359.98 953.467 361.604 952.605C363.261 951.743 364.106 950.517 364.14 948.926C364.106 947.468 363.377 946.308 361.952 945.446C360.56 944.584 358.373 943.888 355.39 943.358L341.867 940.972C334.078 939.613 328.245 937.027 324.367 933.216C320.489 929.404 318.567 924.499 318.6 918.5C318.567 913.197 319.959 908.706 322.776 905.027C325.626 901.315 329.686 898.498 334.956 896.575C340.259 894.62 346.54 893.642 353.799 893.642C364.836 893.642 373.536 895.929 379.9 900.503C386.296 905.077 389.66 911.407 389.992 919.494ZM439.086 972.392C430.933 972.392 423.906 970.834 418.007 967.719C412.14 964.57 407.616 960.062 404.434 954.196C401.286 948.296 399.711 941.237 399.711 933.017C399.711 925.129 401.302 918.235 404.484 912.335C407.666 906.436 412.157 901.845 417.957 898.564C423.757 895.283 430.601 893.642 438.49 893.642C444.257 893.642 449.477 894.537 454.15 896.327C458.824 898.116 462.817 900.718 466.132 904.132C469.446 907.513 471.998 911.623 473.788 916.462C475.578 921.301 476.473 926.753 476.473 932.818V939.182H408.262V924.068H451.217C451.184 921.881 450.62 919.958 449.527 918.301C448.466 916.611 447.024 915.302 445.201 914.374C443.412 913.412 441.373 912.932 439.086 912.932C436.866 912.932 434.827 913.412 432.971 914.374C431.115 915.302 429.624 916.594 428.497 918.251C427.403 919.909 426.823 921.848 426.757 924.068V940.375C426.757 942.828 427.27 945.015 428.298 946.938C429.325 948.86 430.8 950.368 432.723 951.462C434.645 952.555 436.965 953.102 439.683 953.102C441.572 953.102 443.296 952.837 444.853 952.307C446.444 951.777 447.803 951.014 448.93 950.02C450.057 948.992 450.886 947.766 451.416 946.341H476.473C475.611 951.644 473.573 956.251 470.358 960.162C467.143 964.04 462.884 967.056 457.581 969.21C452.311 971.331 446.146 972.392 439.086 972.392ZM515.313 971.994C509.878 971.994 504.873 970.569 500.299 967.719C495.758 964.868 492.112 960.543 489.362 954.743C486.644 948.943 485.285 941.634 485.285 932.818C485.285 923.604 486.71 916.114 489.56 910.347C492.444 904.58 496.156 900.354 500.697 897.669C505.271 894.984 510.076 893.642 515.114 893.642C518.893 893.642 522.207 894.305 525.058 895.631C527.908 896.923 530.294 898.663 532.217 900.851C534.139 903.005 535.597 905.375 536.592 907.96H536.989V869.182H564.433V971H537.188V958.472H536.592C535.531 961.057 534.006 963.377 532.018 965.432C530.062 967.454 527.676 969.061 524.859 970.254C522.075 971.414 518.893 971.994 515.313 971.994ZM525.455 950.915C527.974 950.915 530.129 950.186 531.918 948.727C533.741 947.236 535.133 945.148 536.094 942.463C537.089 939.745 537.586 936.53 537.586 932.818C537.586 929.04 537.089 925.808 536.094 923.124C535.133 920.406 533.741 918.334 531.918 916.909C530.129 915.451 527.974 914.722 525.455 914.722C522.936 914.722 520.782 915.451 518.992 916.909C517.236 918.334 515.877 920.406 514.915 923.124C513.987 925.808 513.523 929.04 513.523 932.818C513.523 936.597 513.987 939.845 514.915 942.562C515.877 945.247 517.236 947.319 518.992 948.777C520.782 950.202 522.936 950.915 525.455 950.915Z" fill="url(#paint2_linear_13_4)"/>
<rect x="1662.5" y="338.5" width="660" height="660" rx="330" fill="#050505"/>
<rect x="1662.5" y="338.5" width="660" height="660" rx="330" stroke="url(#paint3_linear_13_4)"/>
<g clip-path="url(#clip0_13_4)">
<path d="M2131.89 587.904H2063.77C2044.74 571.17 2019.78 561 1992.5 561C1965.22 561 1940.26 571.17 1921.23 587.904H1853.12C1830.72 587.904 1810.44 596.982 1795.76 611.651C1781.09 626.32 1772 646.6 1772 668.995C1772 713.784 1808.32 750.096 1853.12 750.096H1921.23C1940.26 766.83 1965.22 777 1992.5 777C2019.78 777 2044.74 766.83 2063.77 750.096H2131.89C2154.29 750.096 2174.56 741.018 2189.25 726.339C2203.92 711.67 2213 691.39 2213 668.995C2213 624.206 2176.69 587.904 2131.89 587.904ZM2139.5 649.917C2139.5 647.152 2141.75 644.907 2144.51 644.907C2145.9 644.907 2147.15 645.468 2148.05 646.38C2148.96 647.282 2149.53 648.534 2149.53 649.917V659.937C2149.53 662.712 2147.28 664.947 2144.51 664.947C2141.75 664.947 2139.5 662.712 2139.5 659.937V649.917ZM1867.58 672.532C1866.67 673.444 1865.41 674.005 1864.03 674.005H1850.77V687.271C1850.77 690.037 1848.52 692.281 1845.76 692.281C1842.99 692.281 1840.75 690.037 1840.75 687.271V674.005H1827.49C1824.71 674.005 1822.47 671.76 1822.47 668.995C1822.47 666.229 1824.71 663.985 1827.49 663.985H1840.75V650.729C1840.75 647.963 1842.99 645.719 1845.76 645.719C1847.14 645.719 1848.39 646.28 1849.3 647.182C1850.21 648.093 1850.77 649.346 1850.77 650.729V663.985H1864.03C1866.8 663.985 1869.04 666.229 1869.04 668.995C1869.04 670.378 1868.48 671.63 1867.58 672.532ZM2039.94 750.096C2026.01 758.283 2009.79 762.972 1992.5 762.972C1975.21 762.972 1958.99 758.283 1945.06 750.096C1917.23 733.764 1898.51 703.524 1898.51 668.995C1898.51 634.466 1917.23 604.236 1945.06 587.904C1958.99 579.717 1975.21 575.028 1992.5 575.028C2009.79 575.028 2026.01 579.717 2039.94 587.904C2067.77 604.226 2086.5 634.466 2086.5 668.995C2086.5 703.524 2067.77 733.774 2039.94 750.096ZM2134.49 673.043H2124.47C2121.7 673.043 2119.46 670.799 2119.46 668.033C2119.46 666.65 2120.02 665.398 2120.93 664.496C2121.83 663.584 2123.09 663.023 2124.47 663.023H2134.49C2137.26 663.023 2139.5 665.268 2139.5 668.033C2139.5 670.799 2137.26 673.043 2134.49 673.043ZM2149.53 688.073C2149.53 690.838 2147.28 693.083 2144.51 693.083C2141.75 693.083 2139.5 690.838 2139.5 688.073V678.053C2139.5 675.288 2141.75 673.043 2144.51 673.043C2145.9 673.043 2147.15 673.604 2148.05 674.516C2148.96 675.418 2149.53 676.67 2149.53 678.053V688.073ZM2164.56 673.043H2154.54C2151.77 673.043 2149.53 670.799 2149.53 668.033C2149.53 666.65 2150.09 665.398 2151 664.496C2151.9 663.584 2153.15 663.023 2154.54 663.023H2164.56C2167.33 663.023 2169.57 665.268 2169.57 668.033C2169.57 670.799 2167.33 673.043 2164.56 673.043Z" fill="white"/>
<path d="M2040.34 708.694C2039.22 710.257 2037.45 711.089 2035.67 711.089C2034.5 711.089 2033.31 710.738 2032.29 709.997L1985.32 676.139C1983.89 675.107 1983.07 673.544 1982.96 671.911C1982.94 671.74 1982.93 671.57 1982.93 671.39V629.045C1982.93 625.859 1985.51 623.274 1988.7 623.274C1990.29 623.274 1991.74 623.915 1992.78 624.967C1993.82 626.009 1994.46 627.452 1994.46 629.045V668.514L2039.04 700.638C2041.62 702.502 2042.2 706.109 2040.34 708.694Z" fill="white"/>
</g>
<path d="M1912.27 832.455V879H1901.73L1884.91 854.545H1884.64V879H1872V832.455H1882.73L1899.27 856.818H1899.64V832.455H1912.27ZM1935.25 879.636C1931.46 879.636 1928.22 878.886 1925.52 877.386C1922.83 875.871 1920.76 873.765 1919.32 871.068C1917.88 868.356 1917.16 865.212 1917.16 861.636C1917.16 858.061 1917.88 854.924 1919.32 852.227C1920.76 849.515 1922.83 847.409 1925.52 845.909C1928.22 844.394 1931.46 843.636 1935.25 843.636C1939.04 843.636 1942.28 844.394 1944.98 845.909C1947.67 847.409 1949.74 849.515 1951.18 852.227C1952.62 854.924 1953.34 858.061 1953.34 861.636C1953.34 865.212 1952.62 868.356 1951.18 871.068C1949.74 873.765 1947.67 875.871 1944.98 877.386C1942.28 878.886 1939.04 879.636 1935.25 879.636ZM1935.34 870.364C1936.4 870.364 1937.32 870.008 1938.09 869.295C1938.86 868.583 1939.46 867.568 1939.89 866.25C1940.31 864.932 1940.52 863.364 1940.52 861.545C1940.52 859.712 1940.31 858.144 1939.89 856.841C1939.46 855.523 1938.86 854.508 1938.09 853.795C1937.32 853.083 1936.4 852.727 1935.34 852.727C1934.22 852.727 1933.26 853.083 1932.45 853.795C1931.65 854.508 1931.04 855.523 1930.61 856.841C1930.19 858.144 1929.98 859.712 1929.98 861.545C1929.98 863.364 1930.19 864.932 1930.61 866.25C1931.04 867.568 1931.65 868.583 1932.45 869.295C1933.26 870.008 1934.22 870.364 1935.34 870.364ZM1954.41 842.636V832.455H1994.87V842.636H1980.87V879H1968.41V842.636H1954.41ZM1999.81 879V844.091H2012.35V879H1999.81ZM2006.08 840.455C2004.38 840.455 2002.93 839.894 2001.72 838.773C2000.5 837.652 1999.9 836.303 1999.9 834.727C1999.9 833.152 2000.5 831.803 2001.72 830.682C2002.93 829.561 2004.38 829 2006.08 829C2007.79 829 2009.25 829.561 2010.44 830.682C2011.66 831.803 2012.26 833.152 2012.26 834.727C2012.26 836.303 2011.66 837.652 2010.44 838.773C2009.25 839.894 2007.79 840.455 2006.08 840.455ZM2018.74 879V844.091H2030.65V850.727H2031.02C2031.74 848.545 2032.99 846.818 2034.74 845.545C2036.5 844.273 2038.59 843.636 2041.02 843.636C2043.47 843.636 2045.59 844.288 2047.36 845.591C2049.13 846.879 2050.2 848.591 2050.56 850.727H2050.93C2051.52 848.591 2052.77 846.879 2054.7 845.591C2056.62 844.288 2058.88 843.636 2061.47 843.636C2064.82 843.636 2067.53 844.712 2069.61 846.864C2071.7 849.015 2072.74 851.879 2072.74 855.455V879H2060.2V858.636C2060.2 857.106 2059.81 855.909 2059.04 855.045C2058.27 854.167 2057.23 853.727 2055.93 853.727C2054.64 853.727 2053.62 854.167 2052.86 855.045C2052.12 855.909 2051.74 857.106 2051.74 858.636V879H2039.74V858.636C2039.74 857.106 2039.36 855.909 2038.59 855.045C2037.81 854.167 2036.77 853.727 2035.47 853.727C2034.61 853.727 2033.87 853.924 2033.24 854.318C2032.62 854.712 2032.14 855.28 2031.79 856.023C2031.46 856.75 2031.29 857.621 2031.29 858.636V879H2018.74ZM2095.66 879.636C2091.93 879.636 2088.72 878.924 2086.02 877.5C2083.34 876.061 2081.27 874 2079.82 871.318C2078.38 868.621 2077.66 865.394 2077.66 861.636C2077.66 858.03 2078.39 854.879 2079.84 852.182C2081.3 849.485 2083.35 847.386 2086 845.886C2088.65 844.386 2091.78 843.636 2095.39 843.636C2098.02 843.636 2100.41 844.045 2102.55 844.864C2104.68 845.682 2106.51 846.871 2108.02 848.432C2109.54 849.977 2110.7 851.856 2111.52 854.068C2112.34 856.28 2112.75 858.773 2112.75 861.545V864.455H2081.57V857.545H2101.2C2101.19 856.545 2100.93 855.667 2100.43 854.909C2099.95 854.136 2099.29 853.538 2098.45 853.114C2097.64 852.674 2096.7 852.455 2095.66 852.455C2094.64 852.455 2093.71 852.674 2092.86 853.114C2092.02 853.538 2091.33 854.129 2090.82 854.886C2090.32 855.644 2090.05 856.53 2090.02 857.545V865C2090.02 866.121 2090.26 867.121 2090.73 868C2091.2 868.879 2091.87 869.568 2092.75 870.068C2093.63 870.568 2094.69 870.818 2095.93 870.818C2096.8 870.818 2097.58 870.697 2098.3 870.455C2099.02 870.212 2099.64 869.864 2100.16 869.409C2100.67 868.939 2101.05 868.379 2101.3 867.727H2112.75C2112.36 870.152 2111.42 872.258 2109.95 874.045C2108.48 875.818 2106.54 877.197 2104.11 878.182C2101.7 879.152 2098.89 879.636 2095.66 879.636Z" fill="white"/>
<defs>
<linearGradient id="paint0_linear_13_4" x1="3259" y1="-600" x2="-1651" y2="1929" gradientUnits="userSpaceOnUse">
<stop offset="0.412333" stop-color="#0F191A"/>
<stop offset="1" stop-color="#36C456" stop-opacity="0.1"/>
</linearGradient>
<linearGradient id="paint1_linear_13_4" x1="672" y1="392" x2="115" y2="450.5" gradientUnits="userSpaceOnUse">
<stop stop-color="#E3B40B"/>
<stop offset="1" stop-color="#29C55C"/>
</linearGradient>
<linearGradient id="paint2_linear_13_4" x1="774.5" y1="993" x2="584" y2="669" gradientUnits="userSpaceOnUse">
<stop stop-color="#C8B616"/>
<stop offset="1" stop-color="#39C355"/>
</linearGradient>
<linearGradient id="paint3_linear_13_4" x1="1992.5" y1="338" x2="1992.5" y2="999" gradientUnits="userSpaceOnUse">
<stop offset="0.145" stop-color="#43C350"/>
<stop offset="0.24" stop-color="#36C456"/>
<stop offset="1" stop-color="#C8B617"/>
</linearGradient>
<clipPath id="clip0_13_4">
<rect width="441" height="216" fill="white" transform="translate(1772 561)"/>
</clipPath>
</defs>
</svg>
