<svg width="2557" height="1342" viewBox="0 0 2557 1342" fill="none" xmlns="http://www.w3.org/2000/svg">
<rect width="2557" height="1342" fill="#0D1117"/>
<rect width="2557" height="1342" fill="url(#paint0_linear_13_4)" fill-opacity="0.5"/>
<path d="M143.562 416.182H177.966L201.631 473.852H202.824L226.489 416.182H260.892V518H233.847V459.136H233.051L210.381 517.205H194.074L171.403 458.739H170.608V518H143.562V416.182ZM295.668 519.193C290.796 519.193 286.487 518.398 282.742 516.807C279.03 515.183 276.113 512.73 273.992 509.449C271.871 506.168 270.81 501.991 270.81 496.92C270.81 492.744 271.523 489.181 272.948 486.232C274.373 483.249 276.362 480.812 278.914 478.923C281.466 477.034 284.433 475.592 287.813 474.598C291.227 473.604 294.906 472.957 298.85 472.659C303.126 472.328 306.556 471.93 309.141 471.466C311.76 470.969 313.649 470.289 314.809 469.428C315.969 468.533 316.549 467.356 316.549 465.898V465.699C316.549 463.71 315.787 462.186 314.262 461.125C312.737 460.064 310.782 459.534 308.396 459.534C305.777 459.534 303.639 460.114 301.982 461.274C300.358 462.401 299.38 464.141 299.049 466.494H273.793C274.125 461.854 275.6 457.579 278.218 453.668C280.87 449.723 284.731 446.575 289.802 444.222C294.873 441.835 301.203 440.642 308.793 440.642C314.262 440.642 319.167 441.288 323.509 442.581C327.851 443.84 331.547 445.614 334.596 447.901C337.645 450.154 339.965 452.806 341.556 455.855C343.18 458.871 343.992 462.152 343.992 465.699V518H318.339V507.261H317.742C316.218 510.112 314.362 512.415 312.174 514.172C310.02 515.929 307.55 517.205 304.766 518C302.015 518.795 298.983 519.193 295.668 519.193ZM304.617 501.892C306.705 501.892 308.661 501.461 310.484 500.599C312.34 499.738 313.848 498.495 315.008 496.871C316.168 495.247 316.748 493.275 316.748 490.955V484.591C316.019 484.889 315.24 485.171 314.411 485.436C313.616 485.701 312.754 485.95 311.826 486.182C310.931 486.414 309.97 486.629 308.942 486.828C307.948 487.027 306.904 487.209 305.81 487.375C303.689 487.706 301.949 488.253 300.59 489.016C299.264 489.745 298.27 490.656 297.607 491.75C296.978 492.811 296.663 494.004 296.663 495.33C296.663 497.451 297.408 499.075 298.9 500.202C300.391 501.329 302.297 501.892 304.617 501.892ZM426.906 466.494H401.65C401.518 464.937 400.971 463.594 400.01 462.467C399.048 461.34 397.806 460.479 396.281 459.882C394.789 459.252 393.132 458.938 391.309 458.938C388.956 458.938 386.934 459.368 385.244 460.23C383.554 461.092 382.725 462.318 382.758 463.909C382.725 465.036 383.206 466.08 384.2 467.041C385.227 468.002 387.199 468.748 390.116 469.278L405.627 472.062C413.449 473.488 419.266 475.891 423.078 479.271C426.922 482.619 428.861 487.11 428.895 492.744C428.861 498.18 427.237 502.903 424.022 506.913C420.841 510.891 416.482 513.973 410.947 516.161C405.445 518.315 399.164 519.392 392.105 519.392C380.438 519.392 371.307 517.006 364.711 512.233C358.149 507.46 354.486 501.163 353.724 493.341H380.968C381.333 495.76 382.526 497.633 384.548 498.959C386.603 500.251 389.188 500.898 392.304 500.898C394.823 500.898 396.894 500.467 398.518 499.605C400.175 498.743 401.02 497.517 401.054 495.926C401.02 494.468 400.291 493.308 398.866 492.446C397.474 491.584 395.287 490.888 392.304 490.358L378.781 487.972C370.992 486.613 365.159 484.027 361.281 480.216C357.403 476.404 355.481 471.499 355.514 465.5C355.481 460.197 356.873 455.706 359.69 452.027C362.54 448.315 366.6 445.498 371.87 443.575C377.173 441.62 383.454 440.642 390.713 440.642C401.75 440.642 410.45 442.929 416.814 447.503C423.21 452.077 426.574 458.407 426.906 466.494ZM484.949 441.636V461.523H434.637V441.636H484.949ZM444.381 423.341H471.824V493.44C471.824 494.501 472.007 495.396 472.371 496.125C472.736 496.821 473.299 497.351 474.061 497.716C474.824 498.047 475.801 498.213 476.995 498.213C477.823 498.213 478.784 498.114 479.878 497.915C481.005 497.716 481.834 497.55 482.364 497.418L486.341 516.707C485.115 517.072 483.358 517.519 481.071 518.05C478.818 518.58 476.133 518.928 473.017 519.094C466.72 519.425 461.434 518.779 457.158 517.155C452.882 515.498 449.667 512.896 447.513 509.349C445.359 505.803 444.315 501.362 444.381 496.026V423.341ZM531.918 519.392C523.765 519.392 516.738 517.834 510.839 514.719C504.972 511.57 500.448 507.062 497.266 501.196C494.118 495.296 492.543 488.237 492.543 480.017C492.543 472.129 494.134 465.235 497.316 459.335C500.498 45
<path d="M668.699 416.182H703.103L726.767 473.852H727.961L751.625 416.182H786.029V518H758.983V459.136H758.188L735.517 517.205H719.211L696.54 458.739H695.745V518H668.699V416.182ZM836.316 519.392C828.03 519.392 820.938 517.751 815.038 514.47C809.138 511.156 804.614 506.549 801.466 500.649C798.317 494.716 796.743 487.839 796.743 480.017C796.743 472.195 798.317 465.334 801.466 459.435C804.614 453.502 809.138 448.895 815.038 445.614C820.938 442.299 828.03 440.642 836.316 440.642C844.602 440.642 851.695 442.299 857.595 445.614C863.494 448.895 868.019 453.502 871.167 459.435C874.316 465.334 875.89 472.195 875.89 480.017C875.89 487.839 874.316 494.716 871.167 500.649C868.019 506.549 863.494 511.156 857.595 514.47C851.695 517.751 844.602 519.392 836.316 519.392ZM836.515 499.108C838.835 499.108 840.841 498.329 842.531 496.771C844.221 495.214 845.53 492.993 846.458 490.109C847.386 487.226 847.85 483.795 847.85 479.818C847.85 475.808 847.386 472.377 846.458 469.527C845.53 466.643 844.221 464.423 842.531 462.865C840.841 461.307 838.835 460.528 836.515 460.528C834.063 460.528 831.958 461.307 830.201 462.865C828.445 464.423 827.102 466.643 826.174 469.527C825.246 472.377 824.782 475.808 824.782 479.818C824.782 483.795 825.246 487.226 826.174 490.109C827.102 492.993 828.445 495.214 830.201 496.771C831.958 498.329 834.063 499.108 836.515 499.108ZM914.669 518.994C909.233 518.994 904.228 517.569 899.654 514.719C895.114 511.868 891.468 507.543 888.717 501.743C885.999 495.943 884.64 488.634 884.64 479.818C884.64 470.604 886.065 463.114 888.916 457.347C891.799 451.58 895.511 447.354 900.052 444.669C904.626 441.984 909.432 440.642 914.47 440.642C918.248 440.642 921.563 441.305 924.413 442.631C927.263 443.923 929.65 445.663 931.572 447.851C933.494 450.005 934.953 452.375 935.947 454.96H936.345V416.182H963.788V518H936.544V505.472H935.947C934.886 508.057 933.362 510.377 931.373 512.432C929.418 514.454 927.031 516.061 924.214 517.254C921.43 518.414 918.248 518.994 914.669 518.994ZM924.811 497.915C927.33 497.915 929.484 497.186 931.274 495.727C933.097 494.236 934.489 492.148 935.45 489.463C936.444 486.745 936.941 483.53 936.941 479.818C936.941 476.04 936.444 472.808 935.45 470.124C934.489 467.406 933.097 465.334 931.274 463.909C929.484 462.451 927.33 461.722 924.811 461.722C922.292 461.722 920.137 462.451 918.348 463.909C916.591 465.334 915.232 467.406 914.271 470.124C913.343 472.808 912.879 476.04 912.879 479.818C912.879 483.597 913.343 486.845 914.271 489.562C915.232 492.247 916.591 494.319 918.348 495.777C920.137 497.202 922.292 497.915 924.811 497.915ZM1013.85 519.392C1005.7 519.392 998.672 517.834 992.772 514.719C986.906 511.57 982.382 507.062 979.2 501.196C976.051 495.296 974.477 488.237 974.477 480.017C974.477 472.129 976.068 465.235 979.25 459.335C982.431 453.436 986.922 448.845 992.723 445.564C998.523 442.283 1005.37 440.642 1013.26 440.642C1019.02 440.642 1024.24 441.537 1028.92 443.327C1033.59 445.116 1037.58 447.718 1040.9 451.132C1044.21 454.513 1046.76 458.623 1048.55 463.462C1050.34 468.301 1051.24 473.753 1051.24 479.818V486.182H983.028V471.068H1025.98C1025.95 468.881 1025.39 466.958 1024.29 465.301C1023.23 463.611 1021.79 462.302 1019.97 461.374C1018.18 460.412 1016.14 459.932 1013.85 459.932C1011.63 459.932 1009.59 460.412 1007.74 461.374C1005.88 462.302 1004.39 463.594 1003.26 465.251C1002.17 466.909 1001.59 468.848 1001.52 471.068V487.375C1001.52 489.828 1002.04 492.015 1003.06 493.938C1004.09 495.86 1005.57 497.368 1007.49 498.462C1009.41 499.555 1011.73 500.102 1014.45 500.102C1016.34 500.102 1018.06 499.837 1019.62 499.307C1021.21 498.777 1022.57 498.014 1023.7 497.02C1024.82 495.992 1025.65 494.766 1026.18 493.341H1051.24C1050.38 498.644 1048.34 503.251 1045.12 507.162C1041.91 511.04 1037.65 514.056 1032.35 516.21C1027.08 518.331 1020.91 519.392 1013.85 519.392ZM1062.44 518V441.636H1089.08V456.153H1089.88C1091.27 450.784 1093.48 446.857 1096.49 444.371C1099.54 441.885 1103.1 440.642 1107.18 440.642C1108.37 440.642 1109.55 440.741 1110.71 440.94C1111.9 441.106 1113.05 441.355 1114.14 441.686V465.102C1112.78 464.638 1111.11 4
<path d="M625.496 820V718.182H669.445C677.002 718.182 683.614 719.673 689.282 722.656C694.949 725.639 699.357 729.832 702.506 735.234C705.655 740.637 707.229 746.951 707.229 754.176C707.229 761.468 705.605 767.782 702.357 773.118C699.142 778.454 694.618 782.564 688.784 785.447C682.984 788.331 676.206 789.773 668.451 789.773H642.201V768.295H662.882C666.131 768.295 668.898 767.732 671.185 766.605C673.505 765.445 675.278 763.804 676.505 761.683C677.764 759.562 678.394 757.06 678.394 754.176C678.394 751.259 677.764 748.774 676.505 746.719C675.278 744.631 673.505 743.04 671.185 741.946C668.898 740.819 666.131 740.256 662.882 740.256H653.138V820H625.496ZM717.769 820V743.636H744.417V758.153H745.212C746.604 752.784 748.808 748.857 751.824 746.371C754.873 743.885 758.436 742.642 762.513 742.642C763.706 742.642 764.883 742.741 766.043 742.94C767.236 743.106 768.38 743.355 769.473 743.686V767.102C768.114 766.638 766.441 766.29 764.452 766.058C762.463 765.826 760.757 765.71 759.331 765.71C756.647 765.71 754.227 766.323 752.073 767.55C749.952 768.743 748.278 770.433 747.051 772.621C745.825 774.775 745.212 777.311 745.212 780.227V820H717.769ZM810.887 821.392C802.601 821.392 795.508 819.751 789.608 816.47C783.709 813.156 779.185 808.549 776.036 802.649C772.887 796.716 771.313 789.839 771.313 782.017C771.313 774.195 772.887 767.334 776.036 761.435C779.185 755.502 783.709 750.895 789.608 747.614C795.508 744.299 802.601 742.642 810.887 742.642C819.173 742.642 826.266 744.299 832.165 747.614C838.065 750.895 842.589 755.502 845.738 761.435C848.886 767.334 850.461 774.195 850.461 782.017C850.461 789.839 848.886 796.716 845.738 802.649C842.589 808.549 838.065 813.156 832.165 816.47C826.266 819.751 819.173 821.392 810.887 821.392ZM811.086 801.108C813.406 801.108 815.411 800.329 817.101 798.771C818.792 797.214 820.101 794.993 821.029 792.109C821.957 789.226 822.421 785.795 822.421 781.818C822.421 777.808 821.957 774.377 821.029 771.527C820.101 768.643 818.792 766.423 817.101 764.865C815.411 763.307 813.406 762.528 811.086 762.528C808.633 762.528 806.528 763.307 804.772 764.865C803.015 766.423 801.673 768.643 800.745 771.527C799.817 774.377 799.353 777.808 799.353 781.818C799.353 785.795 799.817 789.226 800.745 792.109C801.673 794.993 803.015 797.214 804.772 798.771C806.528 800.329 808.633 801.108 811.086 801.108ZM861.597 743.636H889.04V822.585C889.04 829.28 887.632 834.517 884.814 838.295C882.03 842.074 878.119 844.742 873.081 846.3C868.043 847.857 862.16 848.636 855.432 848.636C854.438 848.636 853.526 848.62 852.698 848.587C851.836 848.554 850.891 848.504 849.864 848.438V828.153C850.527 828.22 851.107 828.269 851.604 828.303C852.068 828.336 852.549 828.352 853.046 828.352C856.327 828.352 858.564 827.839 859.757 826.811C860.984 825.817 861.597 824.209 861.597 821.989V743.636ZM875.319 735.682C871.606 735.682 868.425 734.455 865.773 732.003C863.122 729.55 861.796 726.6 861.796 723.153C861.796 719.706 863.122 716.757 865.773 714.304C868.425 711.851 871.606 710.625 875.319 710.625C879.064 710.625 882.246 711.851 884.864 714.304C887.516 716.757 888.841 719.706 888.841 723.153C888.841 726.6 887.516 729.55 884.864 732.003C882.246 734.455 879.064 735.682 875.319 735.682ZM939.614 821.392C931.46 821.392 924.434 819.834 918.534 816.719C912.668 813.57 908.143 809.062 904.962 803.196C901.813 797.296 900.239 790.237 900.239 782.017C900.239 774.129 901.83 767.235 905.011 761.335C908.193 755.436 912.684 750.845 918.484 747.564C924.285 744.283 931.129 742.642 939.017 742.642C944.784 742.642 950.004 743.537 954.678 745.327C959.351 747.116 963.345 749.718 966.659 753.132C969.973 756.513 972.526 760.623 974.315 765.462C976.105 770.301 977 775.753 977 781.818V788.182H908.79V773.068H951.744C951.711 770.881 951.148 768.958 950.054 767.301C948.993 765.611 947.552 764.302 945.729 763.374C943.939 762.412 941.901 761.932 939.614 761.932C937.393 761.932 935.355 762.412 933.499 763.374C931.643 764.302 930.151 765.594 929.024 767.251C927.93 768.909 927.35 770.848 927.284 773.068V789.375C927.284 791.828 927.798 794.015 928.825 795.938C929.853 797.86 931.328 799.368 933.25 8
<rect x="1662.5" y="338.5" width="660" height="660" rx="330" fill="#050505"/>
<rect x="1662.5" y="338.5" width="660" height="660" rx="330" stroke="url(#paint3_linear_13_4)"/>
<g clip-path="url(#clip0_13_4)">
<path d="M2131.89 587.904H2063.77C2044.74 571.17 2019.78 561 1992.5 561C1965.22 561 1940.26 571.17 1921.23 587.904H1853.12C1830.72 587.904 1810.44 596.982 1795.76 611.651C1781.09 626.32 1772 646.6 1772 668.995C1772 713.784 1808.32 750.096 1853.12 750.096H1921.23C1940.26 766.83 1965.22 777 1992.5 777C2019.78 777 2044.74 766.83 2063.77 750.096H2131.89C2154.29 750.096 2174.56 741.018 2189.25 726.339C2203.92 711.67 2213 691.39 2213 668.995C2213 624.206 2176.69 587.904 2131.89 587.904ZM2139.5 649.917C2139.5 647.152 2141.75 644.907 2144.51 644.907C2145.9 644.907 2147.15 645.468 2148.05 646.38C2148.96 647.282 2149.53 648.534 2149.53 649.917V659.937C2149.53 662.712 2147.28 664.947 2144.51 664.947C2141.75 664.947 2139.5 662.712 2139.5 659.937V649.917ZM1867.58 672.532C1866.67 673.444 1865.41 674.005 1864.03 674.005H1850.77V687.271C1850.77 690.037 1848.52 692.281 1845.76 692.281C1842.99 692.281 1840.75 690.037 1840.75 687.271V674.005H1827.49C1824.71 674.005 1822.47 671.76 1822.47 668.995C1822.47 666.229 1824.71 663.985 1827.49 663.985H1840.75V650.729C1840.75 647.963 1842.99 645.719 1845.76 645.719C1847.14 645.719 1848.39 646.28 1849.3 647.182C1850.21 648.093 1850.77 649.346 1850.77 650.729V663.985H1864.03C1866.8 663.985 1869.04 666.229 1869.04 668.995C1869.04 670.378 1868.48 671.63 1867.58 672.532ZM2039.94 750.096C2026.01 758.283 2009.79 762.972 1992.5 762.972C1975.21 762.972 1958.99 758.283 1945.06 750.096C1917.23 733.764 1898.51 703.524 1898.51 668.995C1898.51 634.466 1917.23 604.236 1945.06 587.904C1958.99 579.717 1975.21 575.028 1992.5 575.028C2009.79 575.028 2026.01 579.717 2039.94 587.904C2067.77 604.226 2086.5 634.466 2086.5 668.995C2086.5 703.524 2067.77 733.774 2039.94 750.096ZM2134.49 673.043H2124.47C2121.7 673.043 2119.46 670.799 2119.46 668.033C2119.46 666.65 2120.02 665.398 2120.93 664.496C2121.83 663.584 2123.09 663.023 2124.47 663.023H2134.49C2137.26 663.023 2139.5 665.268 2139.5 668.033C2139.5 670.799 2137.26 673.043 2134.49 673.043ZM2149.53 688.073C2149.53 690.838 2147.28 693.083 2144.51 693.083C2141.75 693.083 2139.5 690.838 2139.5 688.073V678.053C2139.5 675.288 2141.75 673.043 2144.51 673.043C2145.9 673.043 2147.15 673.604 2148.05 674.516C2148.96 675.418 2149.53 676.67 2149.53 678.053V688.073ZM2164.56 673.043H2154.54C2151.77 673.043 2149.53 670.799 2149.53 668.033C2149.53 666.65 2150.09 665.398 2151 664.496C2151.9 663.584 2153.15 663.023 2154.54 663.023H2164.56C2167.33 663.023 2169.57 665.268 2169.57 668.033C2169.57 670.799 2167.33 673.043 2164.56 673.043Z" fill="white"/>
<path d="M2040.34 708.694C2039.22 710.257 2037.45 711.089 2035.67 711.089C2034.5 711.089 2033.31 710.738 2032.29 709.997L1985.32 676.139C1983.89 675.107 1983.07 673.544 1982.96 671.911C1982.94 671.74 1982.93 671.57 1982.93 671.39V629.045C1982.93 625.859 1985.51 623.274 1988.7 623.274C1990.29 623.274 1991.74 623.915 1992.78 624.967C1993.82 626.009 1994.46 627.452 1994.46 629.045V668.514L2039.04 700.638C2041.62 702.502 2042.2 706.109 2040.34 708.694Z" fill="white"/>
</g>
<path d="M1912.27 832.455V879H1901.73L1884.91 854.545H1884.64V879H1872V832.455H1882.73L1899.27 856.818H1899.64V832.455H1912.27ZM1935.25 879.636C1931.46 879.636 1928.22 878.886 1925.52 877.386C1922.83 875.871 1920.76 873.765 1919.32 871.068C1917.88 868.356 1917.16 865.212 1917.16 861.636C1917.16 858.061 1917.88 854.924 1919.32 852.227C1920.76 849.515 1922.83 847.409 1925.52 845.909C1928.22 844.394 1931.46 843.636 1935.25 843.636C1939.04 843.636 1942.28 844.394 1944.98 845.909C1947.67 847.409 1949.74 849.515 1951.18 852.227C1952.62 854.924 1953.34 858.061 1953.34 861.636C1953.34 865.212 1952.62 868.356 1951.18 871.068C1949.74 873.765 1947.67 875.871 1944.98 877.386C1942.28 878.886 1939.04 879.636 1935.25 879.636ZM1935.34 870.364C1936.4 870.364 1937.32 870.008 1938.09 869.295C1938.86 868.583 1939.46 867.568 1939.89 866.25C1940.31 864.932 1940.52 863.364 1940.52 861.545C1940.52 859.712 1940.31 858.144 1939.89 856.841C1939.46 855.523 1938.86 854.508 1938.09 853.795C1937.32 853.083 1936.4 852.727 1935.34 852.727C1934.22 852.727 1933.26 853.083 1932.45 853.795C1931.65 854.508 1931.04 855.523 1930.61 856.841C1930.19 858.144 1929.98 859.712 1929.98 861.545C1929.98 863.364 1930.19 864.932 1930.61 866.25C1931.04 867.568 1931.65 868.583 1932.45 869.295C1933.26 870.008 1934.22 870.364 1935.34 870.364ZM1954.41 842.636V832.455H1994.87V842.636H1980.87V879H1968.41V842.636H1954.41ZM1999.81 879V844.091H2012.35V879H1999.81ZM2006.08 840.455C2004.38 840.455 2002.93 839.894 2001.72 838.773C2000.5 837.652 1999.9 836.303 1999.9 834.727C1999.9 833.152 2000.5 831.803 2001.72 830.682C2002.93 829.561 2004.38 829 2006.08 829C2007.79 829 2009.25 829.561 2010.44 830.682C2011.66 831.803 2012.26 833.152 2012.26 834.727C2012.26 836.303 2011.66 837.652 2010.44 838.773C2009.25 839.894 2007.79 840.455 2006.08 840.455ZM2018.74 879V844.091H2030.65V850.727H2031.02C2031.74 848.545 2032.99 846.818 2034.74 845.545C2036.5 844.273 2038.59 843.636 2041.02 843.636C2043.47 843.636 2045.59 844.288 2047.36 845.591C2049.13 846.879 2050.2 848.591 2050.56 850.727H2050.93C2051.52 848.591 2052.77 846.879 2054.7 845.591C2056.62 844.288 2058.88 843.636 2061.47 843.636C2064.82 843.636 2067.53 844.712 2069.61 846.864C2071.7 849.015 2072.74 851.879 2072.74 855.455V879H2060.2V858.636C2060.2 857.106 2059.81 855.909 2059.04 855.045C2058.27 854.167 2057.23 853.727 2055.93 853.727C2054.64 853.727 2053.62 854.167 2052.86 855.045C2052.12 855.909 2051.74 857.106 2051.74 858.636V879H2039.74V858.636C2039.74 857.106 2039.36 855.909 2038.59 855.045C2037.81 854.167 2036.77 853.727 2035.47 853.727C2034.61 853.727 2033.87 853.924 2033.24 854.318C2032.62 854.712 2032.14 855.28 2031.79 856.023C2031.46 856.75 2031.29 857.621 2031.29 858.636V879H2018.74ZM2095.66 879.636C2091.93 879.636 2088.72 878.924 2086.02 877.5C2083.34 876.061 2081.27 874 2079.82 871.318C2078.38 868.621 2077.66 865.394 2077.66 861.636C2077.66 858.03 2078.39 854.879 2079.84 852.182C2081.3 849.485 2083.35 847.386 2086 845.886C2088.65 844.386 2091.78 843.636 2095.39 843.636C2098.02 843.636 2100.41 844.045 2102.55 844.864C2104.68 845.682 2106.51 846.871 2108.02 848.432C2109.54 849.977 2110.7 851.856 2111.52 854.068C2112.34 856.28 2112.75 858.773 2112.75 861.545V864.455H2081.57V857.545H2101.2C2101.19 856.545 2100.93 855.667 2100.43 854.909C2099.95 854.136 2099.29 853.538 2098.45 853.114C2097.64 852.674 2096.7 852.455 2095.66 852.455C2094.64 852.455 2093.71 852.674 2092.86 853.114C2092.02 853.538 2091.33 854.129 2090.82 854.886C2090.32 855.644 2090.05 856.53 2090.02 857.545V865C2090.02 866.121 2090.26 867.121 2090.73 868C2091.2 868.879 2091.87 869.568 2092.75 870.068C2093.63 870.568 2094.69 870.818 2095.93 870.818C2096.8 870.818 2097.58 870.697 2098.3 870.455C2099.02 870.212 2099.64 869.864 2100.16 869.409C2100.67 868.939 2101.05 868.379 2101.3 867.727H2112.75C2112.36 870.152 2111.42 872.258 2109.95 874.045C2108.48 875.818 2106.54 877.197 2104.11 878.182C2101.7 879.152 2098.89 879.636 2095.66 879.636Z" fill="white"/>
<defs>
<linearGradient id="paint0_linear_13_4" x1="3259" y1="-600" x2="-1651" y2="1929" gradientUnits="userSpaceOnUse">
<stop offset="0.412333" stop-color="#0F191A"/>
<stop offset="1" stop-color="#36C456" stop-opacity="0.1"/>
</linearGradient>
<linearGradient id="paint1_linear_13_4" x1="672" y1="392" x2="115" y2="450.5" gradientUnits="userSpaceOnUse">
<stop stop-color="#E3B40B"/>
<stop offset="1" stop-color="#29C55C"/>
</linearGradient>
<linearGradient id="paint2_linear_13_4" x1="774.5" y1="993" x2="584" y2="669" gradientUnits="userSpaceOnUse">
<stop stop-color="#C8B616"/>
<stop offset="1" stop-color="#39C355"/>
</linearGradient>
<linearGradient id="paint3_linear_13_4" x1="1992.5" y1="338" x2="1992.5" y2="999" gradientUnits="userSpaceOnUse">
<stop offset="0.145" stop-color="#43C350"/>
<stop offset="0.24" stop-color="#36C456"/>
<stop offset="1" stop-color="#C8B617"/>
</linearGradient>
<clipPath id="clip0_13_4">
<rect width="441" height="216" fill="white" transform="translate(1772 561)"/>
</clipPath>
</defs>
</svg>
