<svg fill="#ffffff" version="1.1" id="Capa_1" xmlns="http://www.w3.org/2000/svg" xmlns:xlink="http://www.w3.org/1999/xlink" viewBox="0 0 31.161 31.161" xml:space="preserve" stroke="#ffffff"><g id="SVGRepo_bgCarrier" stroke-width="0"></g><g id="SVGRepo_tracerCarrier" stroke-linecap="round" stroke-linejoin="round"></g><g id="SVGRepo_iconCarrier"> <g> <path d="M12.024,7.431c-1.267,0.08-2.385,0.229-3.357,0.451C7.698,8.104,7.015,8.425,6.616,8.851 c0.063,0.266,0.096,0.709,0.096,1.328v0.61H0C0.244,8.841,0.752,7.355,1.523,6.33c0.731-0.956,1.736-1.584,3.008-1.885 c1.273-0.301,2.141-0.496,2.604-0.584C8.188,3.667,9.311,3.529,10.5,3.449c1.188-0.08,2.889-0.12,5.1-0.12 c3.251,0,5.537,0.066,6.846,0.2c1.313,0.133,2.674,0.42,4.088,0.862c1.414,0.443,2.461,1.116,3.146,2.018 c0.746,0.992,1.239,2.453,1.481,4.38h-6.61v-0.318c0-0.743,0.022-1.282,0.075-1.62c-0.41-0.442-1.116-0.773-2.123-0.995 c-1.002-0.221-2.065-0.367-3.198-0.438c-1.134-0.07-2.363-0.106-3.703-0.106C14.481,7.31,13.289,7.351,12.024,7.431z M6.711,11.292 v1.143c0,0.548-0.271,0.823-0.811,0.823H0.672c-0.141,0-0.286-0.089-0.442-0.266C0.076,12.814,0,12.628,0,12.435v-1.143H6.711z M2.604,26.213v-5.361c0-0.584,0.076-1.078,0.229-1.475c0.156-0.398,0.412-0.828,0.771-1.289l5.806-7.884V8.532h2.506l0.117,1.673 h6.98V8.532h2.834v1.805l5.996,7.752c0.45,0.551,0.729,0.982,0.838,1.303c0.11,0.316,0.166,0.806,0.166,1.461v5.361 c0,1.08-0.438,1.619-1.313,1.619H3.797C3.002,27.833,2.604,27.293,2.604,26.213z M20.085,17.346 c1.252-0.602,1.879-1.326,1.879-2.177c0-0.833-0.629-1.544-1.889-2.137c-1.261-0.593-2.752-0.889-4.475-0.889 c-1.748,0-3.252,0.301-4.513,0.902c-1.26,0.602-1.891,1.311-1.891,2.124c0,0.851,0.627,1.576,1.881,2.177 c1.252,0.604,2.762,0.902,4.521,0.902C17.337,18.249,18.831,17.948,20.085,17.346z M31.161,12.435c0,0.212-0.062,0.402-0.183,0.57 c-0.123,0.168-0.254,0.253-0.396,0.253h-5.342c-0.166,0-0.324-0.076-0.472-0.226c-0.147-0.15-0.225-0.349-0.225-0.597v-1.144h6.613 v1.143L31.161,12.435L31.161,12.435z"></path> </g> </g></svg>