<?xml version="1.0" standalone="no"?>
<!DOCTYPE svg PUBLIC "-//W3C//DTD SVG 20010904//EN"
 "http://www.w3.org/TR/2001/REC-SVG-20010904/DTD/svg10.dtd">
<svg version="1.0" xmlns="http://www.w3.org/2000/svg"
 width="512.000000pt" height="512.000000pt" viewBox="0 0 512.000000 512.000000"
 preserveAspectRatio="xMidYMid meet">
<metadata>
Created by potrace 1.16, written by Peter Selinger 2001-2019
</metadata>
<g transform="translate(0.000000,512.000000) scale(0.100000,-0.100000)"
fill="#000000" stroke="none">
<path d="M1135 4249 c-470 -59 -860 -420 -955 -887 -25 -123 -27 -322 -5 -439
40 -212 141 -407 289 -562 149 -154 298 -244 506 -304 l80 -23 -74 -150 c-104
-209 -234 -403 -391 -584 -64 -74 -85 -122 -85 -196 0 -119 72 -210 187 -235
65 -15 114 -5 280 56 722 268 1204 816 1377 1566 54 237 79 601 53 774 -39
251 -145 468 -314 645 -104 110 -187 171 -318 235 -203 99 -402 132 -630 104z"/>
<path d="M3692 4250 c-633 -89 -1063 -662 -967 -1290 65 -428 385 -792 794
-901 44 -12 81 -25 81 -28 0 -3 -29 -65 -64 -138 -98 -202 -219 -384 -389
-587 -77 -93 -102 -154 -94 -227 15 -127 110 -212 237 -213 166 -1 615 213
865 412 519 413 805 1050 805 1790 0 196 -21 316 -81 466 -172 430 -554 706
-999 721 -69 2 -153 0 -188 -5z"/>
</g>
</svg>
